<svg width="46" height="35" viewBox="0 0 46 35" fill="none" xmlns="http://www.w3.org/2000/svg">
<path d="M39.9828 3.64396C40.7732 3.64396 41.5554 3.80881 42.2855 4.1291C43.0155 4.44938 43.6786 4.91879 44.2374 5.51062C44.7962 6.1024 45.2394 6.80499 45.5419 7.57825C45.8444 8.35147 46 9.18021 46 10.0171V24.9152C46 25.7499 45.8444 26.5764 45.5419 27.3475C45.2394 28.1187 44.7962 28.8194 44.2374 29.4096C43.6786 29.9998 43.0155 30.468 42.2855 30.7874C41.5554 31.1068 40.7732 31.2712 39.9828 31.2712C39.1927 31.2712 38.4102 31.1068 37.6802 30.7874C36.9502 30.468 36.2869 29.9998 35.7281 29.4096C35.2579 28.9129 34.8695 28.3379 34.578 27.7085L34.1815 26.8063L36.4109 21.7027L38.2457 25.8618C38.3588 26.0834 38.6105 26.4684 38.9602 26.709C39.0425 26.7609 39.1284 26.8065 39.2173 26.8455C39.46 26.952 39.7201 27.0068 39.9828 27.0068C40.2457 27.0068 40.5056 26.952 40.7483 26.8455C40.991 26.739 41.2116 26.5829 41.3974 26.3862C41.5831 26.1894 41.7307 25.9559 41.831 25.6988C41.9317 25.4417 41.9834 25.1662 41.9834 24.8879H41.9886V10.0847H41.9834C41.9834 9.80716 41.9317 9.53237 41.831 9.27597C41.7307 9.01957 41.5831 8.7866 41.3974 8.59037C41.2116 8.39414 40.991 8.23851 40.7483 8.13232C40.5056 8.02613 40.2457 7.97147 39.9828 7.97147C39.7201 7.97147 39.46 8.02613 39.2173 8.13232C39.0556 8.20304 38.9038 8.29584 38.7656 8.40783C38.4653 8.67715 38.2611 9.02915 38.1883 9.19482L36.5436 12.8389L36.4723 12.9995L34.5271 17.4324L34.5398 17.4613L32.313 22.5589L32.2953 22.5186L28.3868 31.4261L28.3899 31.4277C28.0985 32.0588 27.7101 32.6353 27.2399 33.1333C26.6812 33.7252 26.0178 34.1946 25.2878 34.5149C24.5669 34.8311 23.7949 34.9957 23.0147 34.9998C23.0098 34.9998 23.0049 34.9999 22.9999 34.9999C22.995 34.9999 22.9901 35 22.9852 35C22.205 34.9959 21.433 34.8311 20.7121 34.5149C19.9821 34.1946 19.3188 33.7252 18.76 33.1333C18.3073 32.6538 17.9305 32.1015 17.6429 31.4979L17.6258 31.5063L13.6978 22.5339L13.6891 22.5536L11.4717 17.5031L11.4835 17.4762L9.50302 12.9525L9.50695 12.966L7.82217 9.19482C7.75787 9.04851 7.59104 8.75694 7.34619 8.50529C7.17955 8.3488 6.98909 8.22266 6.78263 8.13232C6.5399 8.02613 6.27976 7.97147 6.01706 7.97147C5.75435 7.97147 5.49421 8.02613 5.25149 8.13232C5.00876 8.23851 4.78821 8.39414 4.60245 8.59037C4.41668 8.7866 4.26934 9.01957 4.16882 9.27597C4.06829 9.53237 4.01655 9.80716 4.01655 10.0847H4.01137V24.8879H4.01655C4.01655 25.1662 4.06829 25.4417 4.16882 25.6988C4.26934 25.9559 4.41672 26.1894 4.60245 26.3862C4.78821 26.5829 5.00876 26.739 5.25149 26.8455C5.49421 26.952 5.75435 27.0068 6.01706 27.0068C6.27976 27.0068 6.5399 26.952 6.78263 26.8455C6.9986 26.7508 7.19696 26.6167 7.36893 26.4497C7.60139 26.2037 7.75988 25.9256 7.82217 25.7839L9.46684 22.055L9.45548 22.0961L9.60824 21.7481L11.8237 26.7943L11.4216 27.7084C11.1301 28.3378 10.742 28.9129 10.2718 29.4096C9.71305 29.9998 9.04969 30.468 8.31966 30.7874C7.58967 31.1068 6.80722 31.2712 6.01706 31.2712C5.2269 31.2712 4.44444 31.1068 3.71444 30.7874C2.98441 30.468 2.32108 29.9998 1.76234 29.4096C1.2036 28.8194 0.760404 28.1187 0.458018 27.3475C0.155634 26.5764 -6.90786e-08 25.7499 0 24.9152V10.0171C1.2936e-06 9.18021 0.155636 8.35147 0.458018 7.57825C0.760404 6.80499 1.2036 6.1024 1.76234 5.51062C2.32108 4.91879 2.98441 4.44938 3.71444 4.1291C4.44444 3.80881 5.2269 3.64396 6.01706 3.64396C6.80722 3.64396 7.58967 3.80881 8.31966 4.1291C9.04969 4.44938 9.71305 4.91879 10.2718 5.51062C10.7047 5.96913 11.0681 6.49422 11.3506 7.06711L11.3407 7.07194L17.6194 21.373L21.24 29.6431L21.2555 29.6355C21.3473 29.8152 21.4632 29.9802 21.6002 30.1251C21.7859 30.3219 22.0065 30.478 22.2491 30.5845C22.4873 30.689 22.7423 30.7436 22.9999 30.7456C23.2576 30.7436 23.5126 30.689 23.7507 30.5845C23.9935 30.478 24.214 30.3219 24.3998 30.1251C24.5366 29.9802 24.6526 29.8152 24.7444 29.6355L24.7599 29.6431L29.7322 18.2852L34.6553 7.07194L34.6485 7.06863C34.9311 6.49515 35.2948 5.96956 35.7281 5.51062C36.2869 4.91879 36.9502 4.44938 37.6802 4.1291C38.4102 3.80881 39.1927 3.64396 39.9828 3.64396ZM23.0147 8.39446e-05C23.7949 0.00413431 24.5669 0.168262 25.2878 0.483692C26.0178 0.803109 26.6812 1.27127 27.2399 1.86148C27.6926 2.3397 28.0694 2.8905 28.357 3.49251L28.374 3.48415L30.4436 8.17554L28.2169 13.2473L24.735 5.3321C24.6447 5.15985 24.5321 5.00134 24.3998 4.86155C24.214 4.66532 23.9935 4.50968 23.7507 4.40349C23.5126 4.2993 23.2576 4.24476 22.9999 4.24277C22.7423 4.24476 22.4873 4.2993 22.2491 4.40349C22.0065 4.50968 21.7859 4.66532 21.6002 4.86155C21.4671 5.00206 21.3541 5.16146 21.2635 5.33468L17.781 13.2515L15.5594 8.19143L17.6258 3.48415L17.6429 3.49259C17.9304 2.89055 18.3073 2.33972 18.76 1.86148C19.3188 1.27127 19.9821 0.803109 20.7121 0.483692C21.433 0.168262 22.2051 0.00413431 22.9852 8.39446e-05C22.9901 8.39452e-05 22.995 -1.15774e-05 22.9999 1.18495e-06C23.0049 -1.16452e-05 23.0098 8.39453e-05 23.0147 8.39446e-05Z" fill="#0781F3"/>
</svg>
