<svg width="284" height="48" viewBox="0 0 284 48" fill="none" xmlns="http://www.w3.org/2000/svg">
<path d="M55.6283 4.99743C56.7279 4.99743 57.8162 5.22352 58.832 5.66276C59.8477 6.10201 60.7703 6.74577 61.5477 7.55742C62.3251 8.369 62.9418 9.33255 63.3626 10.393C63.7835 11.4535 64 12.59 64 13.7378V34.1694C64 35.3141 63.7835 36.4476 63.3626 37.5052C62.9418 38.5627 62.3251 39.5237 61.5477 40.3331C60.7703 41.1425 59.8477 41.7846 58.832 42.2227C57.8162 42.6607 56.7279 42.8862 55.6283 42.8862C54.5289 42.8862 53.4403 42.6607 52.4246 42.2227C51.409 41.7846 50.4861 41.1425 49.7087 40.3331C49.0545 39.6519 48.5141 38.8634 48.1086 38.0003L47.5568 36.763L50.6586 29.7637L53.2114 35.4677C53.3688 35.7715 53.719 36.2996 54.2055 36.6295C54.32 36.7006 54.4395 36.7633 54.5631 36.8167C54.9008 36.9628 55.2628 37.0379 55.6283 37.0379C55.994 37.0379 56.3556 36.9628 56.6933 36.8167C57.031 36.6707 57.3379 36.4566 57.5963 36.1868C57.8547 35.9169 58.0601 35.5966 58.1996 35.244C58.3397 34.8915 58.4117 34.5136 58.4117 34.132H58.419V13.8304H58.4117C58.4117 13.4498 58.3397 13.073 58.1996 12.7213C58.0601 12.3697 57.8547 12.0502 57.5963 11.7811C57.3379 11.512 57.031 11.2985 56.6933 11.1529C56.3556 11.0073 55.994 10.9323 55.6283 10.9323C55.2628 10.9323 54.9008 11.0073 54.5631 11.1529C54.3382 11.2499 54.1271 11.3771 53.9347 11.5307C53.517 11.9001 53.2328 12.3828 53.1315 12.61L50.8433 17.6076L50.7441 17.8278L48.0377 23.9073L48.0554 23.9469L44.9573 30.9379L44.9327 30.8827L39.4947 43.0987L39.499 43.1008C39.0935 43.9663 38.5532 44.757 37.8989 45.44C37.1216 46.2517 36.1987 46.8954 35.183 47.3347C34.18 47.7684 33.1059 47.9941 32.0205 47.9997C32.0136 47.9997 32.0068 47.9998 31.9999 47.9998C31.993 47.9998 31.9862 48 31.9793 48C30.8939 47.9944 29.8199 47.7684 28.8169 47.3347C27.8012 46.8954 26.8783 46.2517 26.1009 45.44C25.471 44.7824 24.9467 44.0249 24.5466 43.1971L24.5229 43.2086L19.0578 30.9036L19.0457 30.9307L15.9606 24.0042L15.9771 23.9674L13.2216 17.7635L13.2271 17.782L10.883 12.61C10.7936 12.4094 10.5614 12.0095 10.2208 11.6644C9.98894 11.4498 9.72396 11.2768 9.4367 11.1529C9.09899 11.0073 8.73706 10.9323 8.37156 10.9323C8.00606 10.9323 7.64412 11.0073 7.30642 11.1529C6.96871 11.2985 6.66186 11.512 6.4034 11.7811C6.14495 12.0502 5.93996 12.3697 5.80009 12.7213C5.66023 13.073 5.58824 13.4498 5.58824 13.8304H5.58104V34.132H5.58824C5.58824 34.5136 5.66023 34.8915 5.80009 35.244C5.93996 35.5966 6.145 35.9169 6.4034 36.1868C6.66186 36.4566 6.96871 36.6707 7.30642 36.8167C7.64412 36.9628 8.00606 37.0379 8.37156 37.0379C8.73706 37.0379 9.09899 36.9628 9.4367 36.8167C9.73718 36.6868 10.0132 36.5029 10.2524 36.2739C10.5758 35.9364 10.7964 35.5551 10.883 35.3607L13.1713 30.2469L13.1555 30.3032L13.368 29.826L16.4503 36.7465L15.8909 38.0001C15.4853 38.8632 14.9454 39.6519 14.2911 40.3331C13.5138 41.1425 12.5909 41.7846 11.5752 42.2227C10.5595 42.6607 9.47091 42.8862 8.37156 42.8862C7.2722 42.8862 6.18357 42.6607 5.16791 42.2227C4.15223 41.7846 3.22932 41.1425 2.45195 40.3331C1.67458 39.5237 1.05795 38.5627 0.637243 37.5052C0.216534 36.4476 -9.61094e-08 35.3141 0 34.1694V13.7378C1.79978e-06 12.59 0.216537 11.4535 0.637243 10.393C1.05795 9.33255 1.67458 8.369 2.45195 7.55742C3.22932 6.74577 4.15223 6.10201 5.16791 5.66276C6.18357 5.22352 7.2722 4.99743 8.37156 4.99743C9.47091 4.99743 10.5595 5.22352 11.5752 5.66276C12.5909 6.10201 13.5138 6.74577 14.2911 7.55742C14.8935 8.18624 15.3991 8.90636 15.7921 9.69203L15.7784 9.69865L24.5139 29.3116L29.5513 40.6534L29.5728 40.643C29.7006 40.8894 29.8619 41.1156 30.0524 41.3144C30.3108 41.5843 30.6177 41.7984 30.9553 41.9444C31.2867 42.0877 31.6414 42.1626 31.9999 42.1654C32.3584 42.1626 32.7131 42.0877 33.0445 41.9444C33.3822 41.7984 33.689 41.5843 33.9475 41.3144C34.1379 41.1156 34.2993 40.8894 34.427 40.643L34.4485 40.6534L41.3666 25.0769L48.216 9.69865L48.2067 9.69412C48.5997 8.90764 49.1058 8.18682 49.7087 7.55742C50.4861 6.74577 51.409 6.10201 52.4246 5.66276C53.4403 5.22352 54.5289 4.99743 55.6283 4.99743ZM32.0205 0.000115124C33.1059 0.00566991 34.18 0.23076 35.183 0.663349C36.1987 1.10141 37.1216 1.74346 37.8989 2.55288C38.5288 3.20874 39.0531 3.96412 39.4532 4.78973L39.4769 4.77826L42.3563 11.2122L39.2583 18.1678L34.414 7.31259C34.2883 7.07637 34.1316 6.85897 33.9475 6.66726C33.689 6.39815 33.3822 6.1847 33.0445 6.03908C32.7131 5.89618 32.3584 5.82139 31.9999 5.81866C31.6414 5.82139 31.2867 5.89618 30.9553 6.03908C30.6177 6.1847 30.3108 6.39815 30.0524 6.66726C29.8673 6.85996 29.71 7.07858 29.584 7.31614L24.7387 18.1735L21.6478 11.234L24.5229 4.77826L24.5466 4.78984C24.9467 3.96419 25.471 3.20877 26.1009 2.55288C26.8783 1.74346 27.8012 1.10141 28.8169 0.663349C29.8199 0.23076 30.894 0.00566991 31.9793 0.000115124C31.9862 0.000115125 31.993 -1.58776e-05 31.9999 1.62507e-06C32.0068 -1.59705e-05 32.0136 0.000115125 32.0205 0.000115124Z" fill="#0781F3"/>
<path d="M275.356 36.0096C273.926 36.0096 272.701 35.7415 271.683 35.2053C270.686 34.6458 269.874 33.9231 269.246 33.0373C268.617 32.1281 268.152 31.1374 267.848 30.065C267.545 28.9926 267.393 27.9436 267.393 26.9179C267.393 25.6357 267.534 24.4468 267.816 23.3511C268.119 22.2555 268.585 21.2997 269.213 20.4837C269.841 19.6445 270.654 18.9918 271.651 18.5255C272.669 18.0593 273.904 17.8262 275.356 17.8262C276.981 17.8262 278.443 18.2108 279.743 18.9801C281.043 19.7494 282.072 20.8218 282.83 22.1972C283.61 23.5493 284 25.1228 284 26.9179C284 28.7595 283.61 30.3681 282.83 31.7435C282.05 33.0956 281.01 34.1446 279.71 34.8906C278.41 35.6366 276.959 36.0096 275.356 36.0096ZM273.991 32.4778C275.139 32.4778 276.136 32.2447 276.981 31.7784C277.847 31.3122 278.508 30.6711 278.963 29.8552C279.44 29.016 279.678 28.0369 279.678 26.9179C279.678 25.2394 279.18 23.8873 278.183 22.8616C277.208 21.8358 275.811 21.323 273.991 21.323C272.842 21.323 271.791 21.5444 270.838 21.9874C269.907 22.4303 269.17 23.0714 268.628 23.9106C268.087 24.7265 267.816 25.729 267.816 26.9179C267.816 28.0369 268.065 29.016 268.563 29.8552C269.062 30.6711 269.777 31.3122 270.708 31.7784C271.64 32.2447 272.734 32.4778 273.991 32.4778ZM263.591 18.2108H267.621L267.816 22.8266V42.5836H263.591V18.2108Z" fill="white"/>
<path d="M251.836 36.0096C250.406 36.0096 249.182 35.7415 248.164 35.2053C247.167 34.6458 246.354 33.9231 245.726 33.0373C245.098 32.1281 244.632 31.1374 244.329 30.065C244.025 28.9926 243.874 27.9436 243.874 26.9179C243.874 25.6357 244.015 24.4468 244.296 23.3511C244.6 22.2555 245.065 21.2997 245.694 20.4837C246.322 19.6445 247.134 18.9918 248.131 18.5255C249.149 18.0593 250.384 17.8262 251.836 17.8262C253.461 17.8262 254.923 18.2108 256.223 18.9801C257.523 19.7494 258.553 20.8218 259.311 22.1972C260.091 23.5493 260.481 25.1228 260.481 26.9179C260.481 28.7595 260.091 30.3681 259.311 31.7435C258.531 33.0956 257.491 34.1446 256.191 34.8906C254.891 35.6366 253.439 36.0096 251.836 36.0096ZM250.471 32.4778C251.619 32.4778 252.616 32.2447 253.461 31.7784C254.328 31.3122 254.988 30.6711 255.443 29.8552C255.92 29.016 256.158 28.0369 256.158 26.9179C256.158 25.2394 255.66 23.8873 254.663 22.8616C253.688 21.8358 252.291 21.323 250.471 21.323C249.323 21.323 248.272 21.5444 247.319 21.9874C246.387 22.4303 245.65 23.0714 245.109 23.9106C244.567 24.7265 244.296 25.729 244.296 26.9179C244.296 28.0369 244.545 29.016 245.044 29.8552C245.542 30.6711 246.257 31.3122 247.189 31.7784C248.12 32.2447 249.214 32.4778 250.471 32.4778ZM240.071 18.2108H244.101L244.296 22.8266V42.5836H240.071V18.2108Z" fill="white"/>
<path d="M218.264 30.6528V26.7714H232.173V30.6528H218.264ZM213.031 35.5833L222.911 12.959H227.591L237.568 35.5833H232.856L224.211 15.1969H226.291L217.711 35.5833H213.031Z" fill="white"/>
<path d="M210.429 21.6689L197.592 33.4881L197.137 32.1593H210.656V35.5862H194.114V32.1593L206.951 20.3401L207.406 21.6689H194.114V18.207H210.429V21.6689Z" fill="white"/>
<path d="M190.358 10.584V14.5703H185.45V10.584H190.358ZM185.775 18.207H190V35.5862H185.775V18.207Z" fill="white"/>
<path d="M160.709 35.5833V12.959H172.831C175.648 12.959 177.782 13.4718 179.234 14.4976C180.707 15.5 181.444 17.0036 181.444 19.0085C181.444 20.2906 181.151 21.3047 180.566 22.0507C179.981 22.7734 179.147 23.3095 178.064 23.6592C177.002 24.0089 175.745 24.2304 174.294 24.3236L174.424 24.0788C175.485 24.1021 176.482 24.1837 177.414 24.3236C178.367 24.4635 179.201 24.7199 179.916 25.0929C180.631 25.4659 181.194 25.9904 181.606 26.6665C182.018 27.3192 182.223 28.1818 182.223 29.2541C182.223 30.6528 181.877 31.8184 181.184 32.7509C180.49 33.6601 179.526 34.3478 178.291 34.814C177.056 35.2803 175.626 35.5367 174.001 35.5833H160.709ZM165.031 31.7368H173.546C174.911 31.7368 175.962 31.5037 176.699 31.0375C177.435 30.5479 177.804 29.7786 177.804 28.7296C177.804 27.9603 177.587 27.4008 177.154 27.0511C176.72 26.7014 176.146 26.4916 175.431 26.4217C174.716 26.3285 173.947 26.2818 173.124 26.2818H165.031V31.7368ZM165.031 22.5402H172.669C174.034 22.5402 175.084 22.3304 175.821 21.9108C176.558 21.4679 176.926 20.7219 176.926 19.6729C176.926 18.6238 176.558 17.8895 175.821 17.4699C175.084 17.0269 174.11 16.8055 172.896 16.8055H165.031V22.5402Z" fill="white"/>
<path d="M156.305 10.584V14.5703H151.397V10.584H156.305ZM151.722 18.207H155.947V35.5862H151.722V18.207Z" fill="white"/>
<path d="M142.963 11.215H147.188V35.5878H142.963V11.215Z" fill="white"/>
<path d="M127.019 35.9746C125.416 35.9746 123.953 35.6016 122.631 34.8556C121.331 34.0863 120.291 33.0256 119.511 31.6735C118.753 30.2981 118.374 28.7129 118.374 26.9179C118.374 25.0762 118.764 23.4793 119.544 22.1272C120.324 20.7751 121.375 19.7261 122.696 18.9801C124.04 18.2108 125.556 17.8262 127.246 17.8262C129.11 17.8262 130.605 18.2341 131.731 19.0501C132.88 19.8427 133.714 20.9267 134.234 22.3021C134.754 23.6775 135.014 25.2161 135.014 26.9179C135.014 27.9436 134.862 28.9926 134.559 30.065C134.255 31.114 133.789 32.0932 133.161 33.0023C132.533 33.8882 131.71 34.6109 130.691 35.1703C129.673 35.7065 128.449 35.9746 127.019 35.9746ZM128.384 32.4778C129.662 32.4778 130.767 32.2447 131.699 31.7784C132.63 31.3122 133.345 30.6595 133.844 29.8202C134.342 28.981 134.591 28.0135 134.591 26.9179C134.591 25.729 134.331 24.7265 133.811 23.9106C133.313 23.0714 132.598 22.442 131.666 22.0223C130.756 21.5794 129.662 21.3579 128.384 21.3579C126.585 21.3579 125.188 21.8708 124.191 22.8965C123.195 23.899 122.696 25.2394 122.696 26.9179C122.696 28.0369 122.935 29.016 123.411 29.8552C123.888 30.6711 124.549 31.3122 125.394 31.7784C126.261 32.2447 127.257 32.4778 128.384 32.4778ZM134.591 18.2108H138.816V35.59H134.884C134.884 35.59 134.851 35.3685 134.786 34.9256C134.743 34.4593 134.699 33.8765 134.656 33.1772C134.613 32.4778 134.591 31.7901 134.591 31.114V18.2108Z" fill="white"/>
<path d="M100.347 33.2754H98.2997L110.389 12.959H114.712V35.5833H110.389V19.1483L111.429 19.463L101.777 35.5833H96.9347L87.2824 19.533L88.3224 19.2183V35.5833H84V12.959H88.3224L100.347 33.2754Z" fill="white"/>
</svg>
