<svg width="187" height="32" viewBox="0 0 187 32" fill="none" xmlns="http://www.w3.org/2000/svg">
<path d="M16.8193 0.000244141C17.2636 0.000244141 17.7037 0.0196429 18.1387 0.0559082V31.9446C17.7037 31.9808 17.2636 32.0002 16.8193 32.0002C16.375 32.0002 15.9351 31.9809 15.5 31.9446V0.0559082C15.9351 0.0196303 16.375 0.000248376 16.8193 0.000244141ZM19.458 0.221924C26.9459 1.49143 32.6513 8.07221 32.6514 16.0002C32.6514 23.9283 26.9458 30.508 19.458 31.7776V0.221924ZM12.8613 31.4954C11.9471 31.2575 11.0651 30.9389 10.2227 30.5481V1.45142C11.0651 1.06065 11.9471 0.741945 12.8613 0.50415V31.4954ZM4.94531 26.5813C2.48272 23.7609 0.987305 20.0574 0.987305 16.0002C0.987343 11.9428 2.48237 8.23865 4.94531 5.41821V26.5813Z" fill="#7F57F1"/>
<path d="M164.671 23.1731C164.794 23.1731 164.908 23.0486 165.014 22.7997C165.137 22.5508 165.199 22.1419 165.199 21.573V12.5596C165.199 11.9907 165.137 11.5907 165.014 11.3596C164.908 11.1107 164.794 10.9774 164.671 10.9596C165.445 10.9596 166.237 10.9063 167.046 10.7996C167.855 10.6752 168.488 10.5507 168.946 10.4263V12.053L168.893 12.3996L168.946 12.453C168.998 12.3285 169.165 12.1063 169.447 11.7863C169.728 11.4663 170.133 11.1641 170.661 10.8796C171.188 10.5774 171.839 10.4263 172.613 10.4263C174.249 10.4263 175.498 10.8974 176.36 11.8396C177.24 12.7818 177.68 14.2574 177.68 16.2663V21.573C177.68 22.1419 177.732 22.5508 177.838 22.7997C177.961 23.0486 178.084 23.1731 178.207 23.1731H173.405C173.528 23.1731 173.642 23.0486 173.748 22.7997C173.871 22.5508 173.933 22.1419 173.933 21.573V16.3463C173.933 15.5108 173.845 14.8619 173.669 14.3996C173.493 13.9196 173.247 13.5819 172.93 13.3863C172.631 13.1907 172.279 13.093 171.875 13.093C171.382 13.093 170.907 13.2174 170.45 13.4663C170.01 13.6974 169.649 14.0707 169.368 14.5863C169.086 15.0841 168.946 15.7508 168.946 16.5863V21.573C168.946 22.1419 168.998 22.5508 169.104 22.7997C169.227 23.0486 169.35 23.1731 169.473 23.1731H164.671ZM182.113 23.1731C182.236 23.1553 182.35 23.0219 182.456 22.7731C182.579 22.5242 182.64 22.1242 182.64 21.573V16.5863C182.64 15.8752 182.57 15.2619 182.429 14.7463C182.306 14.213 182.095 13.8041 181.796 13.5196C181.497 13.2352 181.092 13.093 180.582 13.093C179.72 13.093 179.017 13.4041 178.471 14.0263C177.944 14.6485 177.68 15.5908 177.68 16.853H175.753C175.753 15.9997 175.885 15.1908 176.149 14.4263C176.413 13.6441 176.791 12.9596 177.284 12.373C177.776 11.7685 178.366 11.2974 179.052 10.9596C179.738 10.604 180.494 10.4263 181.321 10.4263C182.377 10.4263 183.282 10.6218 184.039 11.0129C184.795 11.3863 185.376 12.0174 185.78 12.9063C186.185 13.7952 186.387 15.0041 186.387 16.533V21.573C186.387 22.1242 186.44 22.5242 186.546 22.7731C186.669 23.0219 186.792 23.1553 186.915 23.1731H182.113Z" fill="white"/>
<path d="M153.755 23.4395C152.735 23.4395 151.864 23.2618 151.143 22.9062C150.421 22.5329 149.876 21.9017 149.507 21.0128C149.137 20.1062 148.953 18.8528 148.953 17.2528V12.2928C148.953 11.7239 148.891 11.315 148.768 11.0661C148.662 10.8172 148.548 10.6927 148.425 10.6927H153.28C153.157 10.6927 153.025 10.8172 152.884 11.0661C152.761 11.315 152.699 11.7239 152.699 12.2928V17.6262C152.699 18.7462 152.902 19.5462 153.306 20.0262C153.729 20.5062 154.212 20.7462 154.758 20.7462C155.532 20.7462 156.13 20.5684 156.552 20.2128C156.974 19.8395 157.273 19.3595 157.449 18.7728C157.625 18.1684 157.713 17.5373 157.713 16.8795V12.2928C157.713 11.7239 157.651 11.3239 157.528 11.0928C157.423 10.8439 157.308 10.7105 157.185 10.6927H161.46V21.5729C161.46 22.1417 161.513 22.5506 161.618 22.7995C161.741 23.0484 161.865 23.1729 161.988 23.1729H157.713V22.1329L157.766 21.5995L157.713 21.5462C157.537 21.8129 157.317 22.0617 157.053 22.2929C156.789 22.524 156.49 22.7284 156.156 22.9062C155.822 23.0662 155.453 23.1906 155.048 23.2795C154.643 23.3862 154.212 23.4395 153.755 23.4395Z" fill="white"/>
<path d="M139.626 23.4397C138.061 23.4397 136.741 23.3508 135.668 23.1731C134.595 22.9953 133.856 22.8175 133.452 22.6397V21.8397L132.897 19.2264C133.355 19.5641 134.208 19.9019 135.457 20.2397C136.706 20.5775 138.236 20.7464 140.048 20.7464C140.594 20.7464 141.025 20.7108 141.341 20.6397C141.676 20.5686 141.913 20.453 142.054 20.293C142.194 20.133 142.265 19.9286 142.265 19.6797C142.265 19.3775 142.15 19.1464 141.922 18.9864C141.711 18.8264 141.324 18.7019 140.761 18.613C140.198 18.5063 139.38 18.3819 138.307 18.2397C136.952 18.0619 135.879 17.813 135.088 17.493C134.296 17.1552 133.733 16.7286 133.399 16.213C133.082 15.6797 132.924 15.0308 132.924 14.2663C132.924 13.5552 133.091 12.9152 133.425 12.3463C133.777 11.7596 134.375 11.2974 135.22 10.9596C136.081 10.604 137.278 10.4263 138.808 10.4263C140.251 10.4263 141.517 10.5152 142.608 10.6929C143.699 10.8707 144.481 11.0485 144.956 11.2263V12.0263L145.484 14.373C145.079 14.1063 144.288 13.8307 143.109 13.5463C141.931 13.2619 140.435 13.1196 138.623 13.1196C137.92 13.1196 137.418 13.1907 137.119 13.333C136.82 13.4752 136.671 13.7241 136.671 14.0796C136.671 14.2574 136.715 14.4085 136.803 14.533C136.908 14.6574 137.102 14.773 137.383 14.8796C137.665 14.9863 138.069 15.093 138.597 15.1996C139.125 15.2885 139.82 15.3863 140.682 15.493C142.177 15.6885 143.303 15.9641 144.059 16.3197C144.816 16.6574 145.326 17.0841 145.59 17.5997C145.853 18.0975 145.985 18.7019 145.985 19.413C145.985 20.3197 145.757 21.0753 145.299 21.6797C144.86 22.2664 144.165 22.7108 143.215 23.0131C142.282 23.2975 141.086 23.4397 139.626 23.4397Z" fill="white"/>
<path d="M116.652 29.0931C116.775 29.0931 116.89 28.9687 116.995 28.7198C117.119 28.4709 117.18 28.062 117.18 27.4931V12.293C117.18 11.7241 117.119 11.3241 116.995 11.0929C116.89 10.8441 116.775 10.7107 116.652 10.6929H120.927V10.9063L120.874 11.4129L120.927 11.4396C121.103 11.2796 121.358 11.1285 121.692 10.9863C122.044 10.8263 122.44 10.6929 122.88 10.5863C123.337 10.4796 123.794 10.4263 124.252 10.4263C125.888 10.4263 127.154 10.7196 128.052 11.3063C128.966 11.8752 129.608 12.6485 129.978 13.6263C130.347 14.6041 130.532 15.7152 130.532 16.9597C130.532 18.1863 130.347 19.2886 129.978 20.2664C129.626 21.2442 128.993 22.0175 128.078 22.5864C127.181 23.1553 125.905 23.4397 124.252 23.4397C123.566 23.4397 122.924 23.3508 122.326 23.1731C121.745 23.0131 121.279 22.7731 120.927 22.4531L120.874 22.4797L120.927 23.0131V27.4931C120.927 28.062 120.98 28.4709 121.085 28.7198C121.208 28.9687 121.332 29.0931 121.455 29.0931H116.652ZM123.724 20.7464C124.463 20.7464 125.052 20.6397 125.492 20.4264C125.949 20.1953 126.275 19.8041 126.468 19.253C126.679 18.7019 126.785 17.9375 126.785 16.9597C126.785 15.9819 126.679 15.2174 126.468 14.6663C126.275 14.0974 125.949 13.6974 125.492 13.4663C125.052 13.2174 124.463 13.093 123.724 13.093C123.144 13.093 122.642 13.2352 122.22 13.5196C121.798 13.7863 121.472 14.2041 121.244 14.773C121.033 15.3419 120.927 16.0797 120.927 16.9863C120.927 17.9108 121.041 18.6486 121.27 19.1997C121.499 19.7508 121.815 20.1508 122.22 20.3997C122.642 20.6308 123.144 20.7464 123.724 20.7464Z" fill="white"/>
<path d="M108.91 23.1732C109.033 23.1732 109.156 23.0488 109.279 22.7999C109.402 22.551 109.464 22.1421 109.464 21.5732V12.2931C109.464 11.7242 109.402 11.3153 109.279 11.0664C109.174 10.8176 109.059 10.6931 108.936 10.6931H113.211V21.5732C113.211 22.1421 113.264 22.551 113.369 22.7999C113.492 23.0488 113.616 23.1732 113.739 23.1732H108.91ZM111.047 8.66642C110.396 8.66642 109.877 8.48864 109.49 8.13308C109.103 7.77752 108.91 7.28863 108.91 6.6664C108.91 6.04417 109.095 5.55528 109.464 5.19972C109.851 4.84416 110.379 4.66638 111.047 4.66638C111.716 4.66638 112.235 4.84416 112.604 5.19972C112.991 5.55528 113.185 6.04417 113.185 6.6664C113.185 7.28863 112.991 7.77752 112.604 8.13308C112.235 8.48864 111.716 8.66642 111.047 8.66642Z" fill="white"/>
<path d="M99.6174 23.4397C97.8583 23.4397 96.4773 23.1553 95.4746 22.5864C94.4895 22.0175 93.7947 21.2442 93.3901 20.2664C93.0031 19.2886 92.8096 18.1863 92.8096 16.9597C92.8096 15.7152 93.0119 14.6041 93.4165 13.6263C93.8387 12.6485 94.5423 11.8752 95.5274 11.3063C96.5125 10.7196 97.8759 10.4263 99.6174 10.4263C101.359 10.4263 102.722 10.7196 103.707 11.3063C104.692 11.8752 105.387 12.6485 105.792 13.6263C106.214 14.6041 106.425 15.7152 106.425 16.9597C106.425 18.1863 106.223 19.2886 105.818 20.2664C105.431 21.2442 104.745 22.0175 103.76 22.5864C102.775 23.1553 101.394 23.4397 99.6174 23.4397ZM99.6174 20.7464C100.356 20.7464 100.946 20.6397 101.385 20.4264C101.843 20.1953 102.168 19.8041 102.362 19.253C102.573 18.7019 102.678 17.9375 102.678 16.9597C102.678 15.9819 102.573 15.2174 102.362 14.6663C102.168 14.0974 101.843 13.6974 101.385 13.4663C100.946 13.2174 100.356 13.093 99.6174 13.093C98.8786 13.093 98.2805 13.2174 97.8231 13.4663C97.3833 13.7152 97.0579 14.1241 96.8468 14.693C96.6533 15.2619 96.5565 16.0263 96.5565 16.9863C96.5565 17.9286 96.6533 18.6752 96.8468 19.2264C97.0579 19.7775 97.3833 20.1686 97.8231 20.3997C98.2805 20.6308 98.8786 20.7464 99.6174 20.7464Z" fill="white"/>
<path d="M83.008 29.6798C81.9877 29.6798 81.0465 29.6087 80.1846 29.4665C79.3402 29.3242 78.6013 29.1465 77.9681 28.9331C77.3524 28.7376 76.8774 28.542 76.5432 28.3464L77.0709 24.3464V23.5731C77.3172 24.0531 77.7042 24.5597 78.2319 25.0931C78.7597 25.6264 79.4193 26.0798 80.2109 26.4531C81.0026 26.8264 81.8997 27.0131 82.9024 27.0131C83.5533 27.0131 84.0986 26.8709 84.5384 26.5864C84.9782 26.3198 85.3124 25.902 85.5411 25.3331C85.7698 24.7642 85.8842 24.062 85.8842 23.2264V22.7997L85.9369 22.3197L85.8842 22.2664C85.6379 22.5331 85.3036 22.7553 84.8814 22.9331C84.4768 23.0931 84.0283 23.2175 83.5357 23.3064C83.0607 23.3953 82.5858 23.4397 82.1108 23.4397C80.6859 23.4397 79.5425 23.1553 78.6805 22.5864C77.8361 22.0175 77.2204 21.2442 76.8334 20.2664C76.464 19.2886 76.2793 18.1863 76.2793 16.9597C76.2793 15.7152 76.464 14.6041 76.8334 13.6263C77.2028 12.6485 77.8097 11.8752 78.6541 11.3063C79.5161 10.7196 80.6683 10.4263 82.1108 10.4263C82.6034 10.4263 83.0871 10.4618 83.5621 10.5329C84.0371 10.604 84.4768 10.7107 84.8814 10.8529C85.286 10.9774 85.6203 11.1552 85.8842 11.3863L85.9369 11.3596L85.8842 10.8529V10.6929H90.1588C90.0357 10.7107 89.9126 10.8441 89.7894 11.0929C89.6839 11.3418 89.6311 11.7596 89.6311 12.3463V22.5597C89.6311 25.1375 89.0858 26.9687 87.9951 28.0531C86.922 29.1376 85.2597 29.6798 83.008 29.6798ZM82.8233 20.7464C83.439 20.7464 83.9755 20.6397 84.4329 20.4264C84.8902 20.213 85.2421 19.8308 85.4883 19.2797C85.7522 18.7286 85.8842 17.9552 85.8842 16.9597C85.8842 15.9819 85.7522 15.2174 85.4883 14.6663C85.2421 14.0974 84.8902 13.6974 84.4329 13.4663C83.9755 13.2174 83.439 13.093 82.8233 13.093C82.2427 13.093 81.7414 13.2174 81.3192 13.4663C80.897 13.7152 80.5716 14.1241 80.3429 14.693C80.1142 15.2619 79.9998 16.0263 79.9998 16.9863C79.9998 17.9286 80.1054 18.6752 80.3165 19.2264C80.5452 19.7775 80.8706 20.1686 81.2928 20.3997C81.715 20.6308 82.2251 20.7464 82.8233 20.7464Z" fill="white"/>
<path d="M67.3557 23.4397C65.5965 23.4397 64.2156 23.1553 63.2129 22.5864C62.2278 22.0175 61.5329 21.2442 61.1283 20.2664C60.7413 19.2886 60.5479 18.1863 60.5479 16.9597C60.5479 15.7152 60.7501 14.6041 61.1547 13.6263C61.5769 12.6485 62.2806 11.8752 63.2657 11.3063C64.2508 10.7196 65.6141 10.4263 67.3557 10.4263C69.0972 10.4263 70.4606 10.7196 71.4457 11.3063C72.4308 11.8752 73.1256 12.6485 73.5302 13.6263C73.9524 14.6041 74.1635 15.7152 74.1635 16.9597C74.1635 18.1863 73.9612 19.2886 73.5566 20.2664C73.1696 21.2442 72.4835 22.0175 71.4984 22.5864C70.5133 23.1553 69.1324 23.4397 67.3557 23.4397ZM67.3557 20.7464C68.0945 20.7464 68.6838 20.6397 69.1236 20.4264C69.581 20.1953 69.9064 19.8041 70.0999 19.253C70.311 18.7019 70.4166 17.9375 70.4166 16.9597C70.4166 15.9819 70.311 15.2174 70.0999 14.6663C69.9064 14.0974 69.581 13.6974 69.1236 13.4663C68.6838 13.2174 68.0945 13.093 67.3557 13.093C66.6168 13.093 66.0187 13.2174 65.5614 13.4663C65.1216 13.7152 64.7962 14.1241 64.5851 14.693C64.3916 15.2619 64.2948 16.0263 64.2948 16.9863C64.2948 17.9286 64.3916 18.6752 64.5851 19.2264C64.7962 19.7775 65.1216 20.1686 65.5614 20.3997C66.0187 20.6308 66.6168 20.7464 67.3557 20.7464Z" fill="white"/>
<path d="M43.2061 23.1735C43.3292 23.1735 43.4523 23.049 43.5755 22.8002C43.6986 22.5513 43.7602 22.1424 43.7602 21.5735V8.77336C43.7602 8.20446 43.6986 7.80446 43.5755 7.57334C43.4523 7.32445 43.3292 7.19112 43.2061 7.17334H48.3779C48.2548 7.17334 48.1316 7.29779 48.0085 7.54668C47.8853 7.79557 47.8238 8.21335 47.8238 8.80002V19.3868C47.8238 19.7779 47.8678 20.0179 47.9557 20.1068C48.0613 20.1779 48.3779 20.2135 48.9057 20.2135H55.2649C56.2852 20.2135 57.1032 20.0979 57.7189 19.8668C58.3522 19.6179 58.7656 19.3779 58.9591 19.1468L58.1675 22.3468V23.1735H43.2061Z" fill="white"/>
</svg>
