<svg width="172" height="32" viewBox="0 0 172 32" fill="none" xmlns="http://www.w3.org/2000/svg">
<path d="M15.208 22.7893C15.7852 22.9412 16.3914 23.0237 17.0166 23.0237C17.5583 23.0236 18.0851 22.96 18.5918 22.845L15.8486 32.0002C14.7368 31.9211 13.6562 31.7308 12.6182 31.4387L15.208 22.7893ZM24.1064 30.4104C23.1323 30.8857 22.1038 31.2678 21.0312 31.5413L18.8525 22.7815C19.9712 22.4821 20.9791 21.9166 21.8047 21.1565L24.1064 30.4104ZM12.1562 21.0901C12.9719 21.8621 13.9725 22.4406 15.0859 22.7551L8.13574 29.3918C7.2252 28.793 6.37887 28.1053 5.61035 27.3401L12.1562 21.0901ZM30.668 24.5374C30.0828 25.4619 29.4063 26.3231 28.6494 27.1077L22.1826 20.7815C22.9089 20.004 23.4599 19.0633 23.7734 18.0198L23.8877 17.9045L30.668 24.5374ZM10.2979 18.1477C10.6553 19.2594 11.2841 20.2497 12.1064 21.0432L2.68066 23.3499C2.18156 22.3878 1.77718 21.3691 1.48047 20.3059L10.2979 18.1477ZM33.1035 17.0413C33.0327 18.1483 32.8488 19.2244 32.5635 20.259L23.8506 17.7463C23.9929 17.1907 24.0693 16.6087 24.0693 16.009C24.0693 15.4483 24.0009 14.9029 23.876 14.3801L33.1035 17.0413ZM10.1357 14.4661C10.0237 14.9625 9.9629 15.479 9.96289 16.009C9.96293 16.651 10.0505 17.2728 10.2129 17.8635L0.915039 15.1809C0.971719 14.0705 1.14256 12.99 1.41504 11.9504L10.1357 14.4661ZM11.7275 11.3674C10.9764 12.2136 10.4282 13.2415 10.1562 14.3762L3.26465 7.63403C3.83994 6.70132 4.50897 5.83216 5.25781 5.03833L11.7275 11.3674ZM31.4951 8.95142C31.9734 9.92053 32.3576 10.9439 32.6328 12.011L23.8223 14.1672C23.5185 13.0541 22.9471 12.0509 22.1797 11.2307L31.4951 8.95142ZM14.835 9.33618C13.7184 9.69702 12.7243 10.327 11.9297 11.1497L9.5957 1.7688C10.562 1.2696 11.585 0.863689 12.6533 0.565674L14.835 9.33618ZM25.9697 2.67017C26.8822 3.27737 27.7281 3.97551 28.4961 4.75024L21.9512 10.9973C21.1447 10.2115 20.1493 9.61746 19.0391 9.28735L25.9697 2.67017ZM17.9561 0.000244141C19.0717 0.0640357 20.1567 0.240628 21.2002 0.518799L18.6074 9.17407C18.0961 9.05676 17.5638 8.99344 17.0166 8.99341C16.3851 8.99341 15.7728 9.07686 15.1904 9.23169L17.9561 0.000244141Z" fill="#F97316"/>
<path d="M153.44 22.2754V10.3291H156.6V11.2463C157.461 10.482 158.507 10.0999 159.737 10.0999C160.521 10.0999 161.221 10.2604 161.836 10.5814C162.451 10.8871 162.958 11.3228 163.358 11.8884C163.85 11.3075 164.427 10.8642 165.088 10.5584C165.765 10.2527 166.51 10.0999 167.325 10.0999C168.233 10.0999 169.024 10.3062 169.701 10.719C170.393 11.1164 170.931 11.6743 171.315 12.3928C171.715 13.096 171.915 13.9214 171.915 14.8692V22.2754H168.778V15.3278C168.778 14.5482 168.571 13.9367 168.156 13.4934C167.74 13.0348 167.187 12.8055 166.495 12.8055C166.018 12.8055 165.58 12.9049 165.18 13.1036C164.796 13.3023 164.465 13.6004 164.189 13.9979C164.204 14.1355 164.219 14.273 164.235 14.4106C164.25 14.5482 164.258 14.701 164.258 14.8692V22.2754H161.098V15.3278C161.098 14.5482 160.89 13.9367 160.475 13.4934C160.075 13.0348 159.53 12.8055 158.838 12.8055C158.361 12.8055 157.93 12.8973 157.546 13.0807C157.177 13.2641 156.862 13.5393 156.6 13.9062V22.2754H153.44Z" fill="white"/>
<path d="M143.966 22.5046C143.044 22.5046 142.221 22.3058 141.498 21.9084C140.791 21.4957 140.23 20.9301 139.815 20.2116C139.415 19.4931 139.215 18.6677 139.215 17.7352V10.329H142.375V17.2766C142.375 18.0409 142.598 18.6524 143.044 19.111C143.505 19.5696 144.12 19.7989 144.889 19.7989C145.412 19.7989 145.881 19.6995 146.296 19.5008C146.726 19.2868 147.08 18.9887 147.357 18.6065V10.329H150.516V22.2753H147.357V21.3122C146.434 22.1071 145.304 22.5046 143.966 22.5046Z" fill="white"/>
<path d="M132.013 22.5051C130.906 22.5051 129.884 22.3675 128.946 22.0924C128.008 21.8019 127.193 21.3892 126.501 20.8542L128.069 18.7676C128.761 19.2262 129.422 19.5701 130.053 19.7994C130.699 20.0287 131.337 20.1434 131.967 20.1434C132.675 20.1434 133.236 20.0287 133.651 19.7994C134.082 19.5548 134.297 19.2415 134.297 18.8593C134.297 18.5536 134.174 18.309 133.928 18.1256C133.697 17.9421 133.32 17.8122 132.798 17.7358L130.491 17.3918C129.292 17.2084 128.385 16.8262 127.77 16.2454C127.154 15.6492 126.847 14.8696 126.847 13.9065C126.847 13.1269 127.047 12.462 127.447 11.9117C127.862 11.3461 128.438 10.9104 129.176 10.6047C129.93 10.2837 130.822 10.1232 131.852 10.1232C132.728 10.1232 133.582 10.2455 134.412 10.49C135.258 10.7346 136.05 11.1091 136.788 11.6136L135.266 13.6543C134.604 13.2416 133.974 12.9435 133.374 12.7601C132.775 12.5766 132.167 12.4849 131.552 12.4849C130.983 12.4849 130.522 12.5919 130.168 12.8059C129.83 13.0199 129.661 13.3027 129.661 13.6543C129.661 13.9753 129.784 14.2276 130.03 14.411C130.276 14.5944 130.699 14.7244 131.298 14.8008L133.582 15.1447C134.781 15.3129 135.696 15.695 136.326 16.2912C136.957 16.8721 137.272 17.6288 137.272 18.5612C137.272 19.3256 137.041 20.0058 136.58 20.602C136.119 21.1828 135.496 21.6491 134.712 22.0007C133.928 22.337 133.028 22.5051 132.013 22.5051Z" fill="white"/>
<path d="M112.504 26.9541V10.3302H115.618V11.3162C116.602 10.5518 117.74 10.1697 119.031 10.1697C120.169 10.1697 121.199 10.4448 122.122 10.9951C123.044 11.5454 123.775 12.2868 124.313 13.2193C124.867 14.1365 125.143 15.1683 125.143 16.3148C125.143 17.4613 124.867 18.5007 124.313 19.4332C123.759 20.3504 123.014 21.0841 122.076 21.6344C121.138 22.1695 120.092 22.437 118.939 22.437C118.339 22.437 117.763 22.3605 117.209 22.2077C116.656 22.0395 116.14 21.8026 115.664 21.4969V26.9541H112.504ZM118.524 19.7771C119.185 19.7771 119.777 19.6243 120.3 19.3186C120.838 19.0128 121.261 18.6001 121.568 18.0804C121.876 17.5606 122.03 16.9721 122.03 16.3148C122.03 15.6575 121.876 15.069 121.568 14.5492C121.261 14.0142 120.838 13.6015 120.3 13.311C119.777 13.0053 119.185 12.8524 118.524 12.8524C117.939 12.8524 117.401 12.9518 116.909 13.1505C116.433 13.334 116.017 13.6167 115.664 13.9989V18.6536C116.002 19.0052 116.417 19.2803 116.909 19.4791C117.417 19.6778 117.955 19.7771 118.524 19.7771Z" fill="white"/>
<path d="M106.412 22.276V10.3297H109.572V22.276H106.412ZM107.981 8.90806C107.489 8.90806 107.066 8.73227 106.712 8.38068C106.358 8.0291 106.182 7.60872 106.182 7.11956C106.182 6.61511 106.358 6.19473 106.712 5.85843C107.066 5.50685 107.489 5.33105 107.981 5.33105C108.488 5.33105 108.911 5.50685 109.249 5.85843C109.603 6.19473 109.78 6.61511 109.78 7.11956C109.78 7.60872 109.603 8.0291 109.249 8.38068C108.911 8.73227 108.488 8.90806 107.981 8.90806Z" fill="white"/>
<path d="M97.5965 22.5047C96.3972 22.5047 95.3131 22.2296 94.3444 21.6793C93.3757 21.129 92.6069 20.3876 92.0379 19.4551C91.469 18.5226 91.1846 17.4755 91.1846 16.3138C91.1846 15.152 91.4613 14.1049 92.0149 13.1724C92.5838 12.2247 93.3526 11.4756 94.3214 10.9253C95.3054 10.375 96.3972 10.0999 97.5965 10.0999C98.7959 10.0999 99.8799 10.375 100.849 10.9253C101.833 11.4756 102.602 12.2247 103.155 13.1724C103.724 14.1049 104.008 15.152 104.008 16.3138C104.008 17.4755 103.724 18.5226 103.155 19.4551C102.602 20.3876 101.84 21.129 100.872 21.6793C99.903 22.2296 98.8113 22.5047 97.5965 22.5047ZM97.5965 19.7761C98.227 19.7761 98.7882 19.6233 99.2802 19.3175C99.7876 19.0118 100.187 18.5991 100.48 18.0793C100.787 17.5443 100.941 16.9558 100.941 16.3138C100.941 15.6564 100.787 15.0679 100.48 14.5482C100.187 14.0284 99.7876 13.6157 99.2802 13.31C98.7882 12.989 98.227 12.8285 97.5965 12.8285C96.9815 12.8285 96.4202 12.989 95.9128 13.31C95.4054 13.6157 95.0056 14.0284 94.7134 14.5482C94.4213 15.0679 94.2752 15.6564 94.2752 16.3138C94.2752 16.9558 94.4213 17.5443 94.7134 18.0793C95.0056 18.5991 95.4054 19.0118 95.9128 19.3175C96.4202 19.6233 96.9815 19.7761 97.5965 19.7761Z" fill="white"/>
<path d="M82.8592 27.183C81.9366 27.183 81.0447 27.0836 80.1837 26.8849C79.3226 26.7015 78.5461 26.434 77.8541 26.0824L78.9612 23.6519C79.6224 23.9729 80.2682 24.2098 80.8987 24.3627C81.5291 24.5155 82.1595 24.592 82.79 24.592C83.7279 24.592 84.4352 24.3932 84.9119 23.9958C85.404 23.5984 85.65 23.0022 85.65 22.2073V21.2672C84.6659 21.9856 83.5665 22.3449 82.3517 22.3449C81.2139 22.3449 80.1837 22.0774 79.2611 21.5423C78.3539 20.992 77.6235 20.2506 77.07 19.3182C76.5318 18.3857 76.2627 17.3539 76.2627 16.2227C76.2627 15.0915 76.5318 14.0673 77.07 13.1501C77.6235 12.2329 78.3693 11.5068 79.3072 10.9718C80.2452 10.4215 81.2908 10.1464 82.444 10.1464C83.0283 10.1464 83.5972 10.2304 84.1508 10.3986C84.7043 10.5667 85.2194 10.8037 85.6961 11.1094V10.3298H88.8098V22.2532C88.8098 23.8276 88.2947 25.0429 87.2645 25.8989C86.2496 26.755 84.7812 27.183 82.8592 27.183ZM82.8361 19.685C83.4204 19.685 83.9509 19.5933 84.4275 19.4099C84.9042 19.2112 85.3117 18.936 85.65 18.5844V13.9068C85.3117 13.5705 84.8965 13.3106 84.4045 13.1272C83.9278 12.9285 83.4127 12.8291 82.8592 12.8291C82.198 12.8291 81.606 12.982 81.0832 13.2877C80.5604 13.5781 80.1452 13.9832 79.8377 14.503C79.5302 15.0074 79.3764 15.5807 79.3764 16.2227C79.3764 16.88 79.5225 17.4685 79.8146 17.9883C80.1222 18.508 80.5373 18.9207 81.0601 19.2265C81.5983 19.5322 82.1903 19.685 82.8361 19.685Z" fill="white"/>
<path d="M68.0008 22.5047C66.8015 22.5047 65.7174 22.2296 64.7487 21.6793C63.78 21.129 63.0112 20.3876 62.4422 19.4551C61.8733 18.5226 61.5889 17.4755 61.5889 16.3138C61.5889 15.152 61.8656 14.1049 62.4192 13.1724C62.9881 12.2247 63.7569 11.4756 64.7257 10.9253C65.7097 10.375 66.8015 10.0999 68.0008 10.0999C69.2002 10.0999 70.2842 10.375 71.2529 10.9253C72.237 11.4756 73.0058 12.2247 73.5594 13.1724C74.1283 14.1049 74.4128 15.152 74.4128 16.3138C74.4128 17.4755 74.1283 18.5226 73.5594 19.4551C73.0058 20.3876 72.2447 21.129 71.276 21.6793C70.3073 22.2296 69.2156 22.5047 68.0008 22.5047ZM68.0008 19.7761C68.6312 19.7761 69.1925 19.6233 69.6845 19.3175C70.1919 19.0118 70.5917 18.5991 70.8839 18.0793C71.1914 17.5443 71.3452 16.9558 71.3452 16.3138C71.3452 15.6564 71.1914 15.0679 70.8839 14.5482C70.5917 14.0284 70.1919 13.6157 69.6845 13.31C69.1925 12.989 68.6312 12.8285 68.0008 12.8285C67.3858 12.8285 66.8245 12.989 66.3171 13.31C65.8097 13.6157 65.4099 14.0284 65.1177 14.5482C64.8256 15.0679 64.6795 15.6564 64.6795 16.3138C64.6795 16.9558 64.8256 17.5443 65.1177 18.0793C65.4099 18.5991 65.8097 19.0118 66.3171 19.3175C66.8245 19.6233 67.3858 19.7761 68.0008 19.7761Z" fill="white"/>
<path d="M47.8564 22.2769V6.2262H51.2008V19.3419H60.0346V22.2769H47.8564Z" fill="white"/>
</svg>
