<svg width="178" height="32" viewBox="0 0 178 32" fill="none" xmlns="http://www.w3.org/2000/svg">
<path d="M161.299 23.5016H157.616V10.3169H160.496L160.939 12.003C161.53 11.3949 162.176 10.9158 162.878 10.5657C163.579 10.2156 164.373 10.0405 165.259 10.0405C167.143 10.0405 168.426 10.7223 169.109 12.0859C169.7 11.441 170.373 10.9435 171.13 10.5933C171.887 10.2248 172.7 10.0405 173.567 10.0405C174.971 10.0405 176.041 10.4183 176.78 11.1738C177.537 11.9293 177.915 13.0257 177.915 14.463V23.5016H174.232V14.8777C174.232 14.2511 174.075 13.7628 173.761 13.4127C173.466 13.0442 173.023 12.8599 172.432 12.8599C171.934 12.8599 171.426 12.9797 170.909 13.2192C170.41 13.4588 169.977 13.7997 169.607 14.2419V23.5016H165.924V14.8777C165.924 14.2511 165.767 13.7628 165.453 13.4127C165.158 13.0442 164.715 12.8599 164.124 12.8599C163.626 12.8599 163.118 12.9981 162.601 13.2745C162.102 13.5325 161.669 13.8918 161.299 14.3525V23.5016Z" fill="white"/>
<path d="M150.068 10.3193H153.751V23.504H151.009L150.621 22.0114H150.511C150.308 22.2141 150.068 22.426 149.791 22.6471C149.532 22.8498 149.218 23.0433 148.849 23.2276C148.498 23.3934 148.092 23.5316 147.631 23.6422C147.187 23.7527 146.689 23.808 146.135 23.808C144.714 23.808 143.587 23.4118 142.757 22.6195C141.944 21.8271 141.538 20.657 141.538 19.1091V10.3193H145.221V18.805C145.221 19.5974 145.406 20.1686 145.775 20.5188C146.163 20.8689 146.652 21.0439 147.243 21.0439C147.907 21.0439 148.471 20.9057 148.932 20.6293C149.412 20.3529 149.791 20.0304 150.068 19.6619V10.3193Z" fill="white"/>
<path d="M136.925 13.468C135.836 12.952 134.784 12.694 133.768 12.694C133.178 12.694 132.716 12.7954 132.384 12.9981C132.07 13.2008 131.913 13.4772 131.913 13.8273C131.913 14.1774 132.051 14.463 132.328 14.6842C132.624 14.9053 133.205 15.1448 134.073 15.4028L134.904 15.6516C136.048 15.9833 136.916 16.4624 137.507 17.0889C138.098 17.7154 138.393 18.5262 138.393 19.5213C138.393 20.8296 137.885 21.8708 136.87 22.6447C135.873 23.4186 134.516 23.8056 132.799 23.8056C131.045 23.8056 129.541 23.4923 128.285 22.8658L129.116 20.157C129.651 20.4334 130.214 20.6638 130.805 20.848C131.396 21.0139 131.996 21.0968 132.605 21.0968C133.344 21.0968 133.879 20.9863 134.211 20.7651C134.562 20.5256 134.738 20.2215 134.738 19.853C134.738 19.466 134.571 19.1712 134.239 18.9685C133.907 18.7474 133.279 18.5078 132.356 18.2498L131.498 18.0011C130.39 17.6325 129.577 17.1442 129.061 16.5361C128.544 15.928 128.285 15.1172 128.285 14.1037C128.285 12.9059 128.737 11.9293 129.642 11.1738C130.547 10.4183 131.811 10.0405 133.436 10.0405C135.042 10.0405 136.464 10.3261 137.701 10.8974L136.925 13.468Z" fill="white"/>
<path d="M119.131 23.8056C118.651 23.8056 118.171 23.7411 117.691 23.6121C117.229 23.5016 116.841 23.3541 116.528 23.1699V29.8589H112.872V10.2617H115.669L116.057 11.7266C116.592 11.2107 117.201 10.8053 117.885 10.5104C118.568 10.1972 119.334 10.0405 120.183 10.0405C121.918 10.0405 123.285 10.6302 124.282 11.8095C125.297 12.9704 125.805 14.5828 125.805 16.6467C125.805 17.8076 125.629 18.8395 125.279 19.7424C124.928 20.6269 124.448 21.3732 123.839 21.9813C123.229 22.5894 122.518 23.0501 121.706 23.3634C120.894 23.6582 120.035 23.8056 119.131 23.8056ZM119.186 12.8046C118.577 12.8046 118.041 12.952 117.58 13.2469C117.118 13.5233 116.768 13.8089 116.528 14.1037V20.4058C117.1 20.8665 117.811 21.0968 118.66 21.0968C119.066 21.0968 119.463 21.0231 119.851 20.8757C120.257 20.7098 120.617 20.4611 120.931 20.1294C121.263 19.7793 121.522 19.3278 121.706 18.775C121.909 18.2222 122.011 17.5496 122.011 16.7572C122.011 16.186 121.946 15.6608 121.817 15.1817C121.706 14.7026 121.531 14.288 121.291 13.9379C121.051 13.5878 120.755 13.3113 120.405 13.1086C120.054 12.9059 119.648 12.8046 119.186 12.8046Z" fill="white"/>
<path d="M104.996 23.5031V10.3185H108.679V23.5031H104.996ZM106.851 7.49913C106.224 7.49913 105.734 7.32407 105.384 6.97395C105.033 6.60541 104.857 6.15395 104.857 5.61956C104.857 5.08517 105.033 4.64292 105.384 4.2928C105.734 3.92426 106.224 3.73999 106.851 3.73999C107.461 3.73999 107.941 3.92426 108.291 4.2928C108.661 4.64292 108.845 5.08517 108.845 5.61956C108.845 6.15395 108.67 6.60541 108.319 6.97395C107.968 7.32407 107.479 7.49913 106.851 7.49913Z" fill="white"/>
<path d="M101.519 16.8125C101.519 17.8997 101.343 18.8763 100.993 19.7424C100.642 20.6085 100.153 21.3456 99.5249 21.9537C98.9157 22.5433 98.1956 23.004 97.3648 23.3357C96.5341 23.649 95.6386 23.8056 94.6786 23.8056C93.7186 23.8056 92.8232 23.6582 91.9924 23.3634C91.1801 23.0685 90.4693 22.6355 89.86 22.0642C89.2693 21.493 88.7985 20.7928 88.4477 19.9635C88.1154 19.1159 87.9492 18.1577 87.9492 17.0889C87.9492 15.9649 88.1246 14.9698 88.4754 14.1037C88.8262 13.2192 89.3062 12.4821 89.9154 11.8925C90.5431 11.2844 91.2724 10.8237 92.1032 10.5104C92.934 10.1972 93.8294 10.0405 94.7894 10.0405C95.7494 10.0405 96.6356 10.1879 97.4479 10.4828C98.2787 10.7776 98.9895 11.2107 99.5803 11.7819C100.19 12.3347 100.66 13.0349 100.993 13.8826C101.343 14.7302 101.519 15.7069 101.519 16.8125ZM97.7249 16.9507C97.7249 16.1952 97.6418 15.5502 97.4756 15.0159C97.3095 14.4815 97.0879 14.0484 96.811 13.7167C96.5341 13.3851 96.211 13.1455 95.8417 12.9981C95.4725 12.8322 95.094 12.7493 94.7063 12.7493C94.3186 12.7493 93.9494 12.823 93.5986 12.9704C93.2478 13.0994 92.934 13.3298 92.657 13.6615C92.3801 13.9747 92.1586 14.3985 91.9924 14.9329C91.8262 15.4673 91.7432 16.1399 91.7432 16.9507C91.7432 17.6694 91.8262 18.2959 91.9924 18.8303C92.1586 19.3462 92.3801 19.7701 92.657 20.1017C92.9524 20.4334 93.2755 20.6822 93.6263 20.848C93.9955 21.0139 94.374 21.0968 94.7617 21.0968C95.1494 21.0968 95.5186 21.0323 95.8694 20.9033C96.2202 20.7559 96.5341 20.5164 96.811 20.1847C97.0879 19.853 97.3095 19.4292 97.4756 18.9132C97.6418 18.3788 97.7249 17.7246 97.7249 16.9507Z" fill="white"/>
<path d="M72.806 14.7947C72.806 14.0761 72.9445 13.4219 73.2214 12.8322C73.5168 12.2426 73.9137 11.745 74.4122 11.3396C74.9292 10.9158 75.5292 10.5933 76.2123 10.3722C76.9138 10.1511 77.68 10.0405 78.5108 10.0405C78.8246 10.0405 79.1662 10.0682 79.5354 10.1235C79.9047 10.1603 80.2462 10.2248 80.5601 10.3169H86.2094V12.6388H85.0186L83.3017 12.39C83.5417 12.6848 83.7355 13.0534 83.8832 13.4956C84.0494 13.9379 84.1325 14.3801 84.1325 14.8224C84.1325 16.2228 83.6248 17.3561 82.6094 18.2222C81.6124 19.0698 80.237 19.4937 78.4831 19.4937C78.0215 19.4937 77.6154 19.4568 77.2646 19.3831C76.8031 19.5674 76.5723 19.8714 76.5723 20.2952C76.5723 20.5901 76.6738 20.8112 76.8769 20.9586C77.08 21.106 77.44 21.1797 77.9569 21.1797H80.9201C82.3786 21.1797 83.5417 21.5022 84.4094 22.1472C85.2956 22.7737 85.7387 23.7872 85.7387 25.1876C85.7387 25.9063 85.5633 26.5605 85.2125 27.1501C84.8802 27.7582 84.4002 28.2742 83.7725 28.698C83.1448 29.1403 82.3878 29.4812 81.5016 29.7207C80.6155 29.9603 79.6277 30.08 78.5385 30.08C76.5261 30.08 74.9292 29.7207 73.7476 29.0021C72.5845 28.3018 72.0029 27.2883 72.0029 25.9616C72.0029 25.3535 72.206 24.8191 72.6122 24.3584C73.0183 23.9162 73.5814 23.5661 74.3014 23.3081C74.043 23.1238 73.7845 22.8658 73.526 22.5341C73.2676 22.184 73.1383 21.751 73.1383 21.235C73.1383 20.6269 73.323 20.1017 73.6922 19.6595C74.0614 19.2172 74.5322 18.8671 75.1045 18.6092C74.8276 18.4617 74.5507 18.2775 74.2738 18.0563C74.0153 17.8168 73.7753 17.5404 73.5537 17.2271C73.3322 16.9139 73.1476 16.5545 72.9999 16.1491C72.8706 15.7437 72.806 15.2923 72.806 14.7947ZM76.3507 23.9438C76.0738 24.0912 75.843 24.2847 75.6584 24.5243C75.4738 24.7638 75.3815 25.0679 75.3815 25.4364C75.3815 25.9708 75.6215 26.413 76.1015 26.7632C76.6 27.1317 77.4492 27.316 78.6493 27.316C79.8493 27.316 80.7262 27.1133 81.2801 26.7079C81.834 26.3025 82.1109 25.8418 82.1109 25.3258C82.1109 24.8099 81.9355 24.4506 81.5847 24.2479C81.2339 24.0452 80.6893 23.9438 79.9508 23.9438H76.3507ZM80.5324 14.7671C80.5324 14.0484 80.3385 13.5048 79.9508 13.1363C79.5631 12.7677 79.0739 12.5835 78.4831 12.5835C77.8738 12.5835 77.3754 12.7677 76.9877 13.1363C76.6184 13.5048 76.4338 14.0392 76.4338 14.7395C76.4338 15.4765 76.6277 16.0294 77.0154 16.3979C77.4031 16.7664 77.8923 16.9507 78.4831 16.9507C79.0923 16.9507 79.5816 16.7664 79.9508 16.3979C80.3385 16.0294 80.5324 15.4857 80.5324 14.7671Z" fill="white"/>
<path d="M69.7708 16.8125C69.7708 17.8997 69.5954 18.8763 69.2446 19.7424C68.8938 20.6085 68.4046 21.3456 67.7769 21.9537C67.1676 22.5433 66.4476 23.004 65.6168 23.3357C64.786 23.649 63.8906 23.8056 62.9306 23.8056C61.9706 23.8056 61.0751 23.6582 60.2444 23.3634C59.432 23.0685 58.7212 22.6355 58.112 22.0642C57.5212 21.493 57.0504 20.7928 56.6996 19.9635C56.3673 19.1159 56.2012 18.1577 56.2012 17.0889C56.2012 15.9649 56.3766 14.9698 56.7273 14.1037C57.0781 13.2192 57.5581 12.4821 58.1674 11.8925C58.7951 11.2844 59.5243 10.8237 60.3551 10.5104C61.1859 10.1972 62.0813 10.0405 63.0413 10.0405C64.0014 10.0405 64.8875 10.1879 65.6999 10.4828C66.5307 10.7776 67.2415 11.2107 67.8322 11.7819C68.4415 12.3347 68.9123 13.0349 69.2446 13.8826C69.5954 14.7302 69.7708 15.7069 69.7708 16.8125ZM65.9768 16.9507C65.9768 16.1952 65.8937 15.5502 65.7276 15.0159C65.5614 14.4815 65.3399 14.0484 65.0629 13.7167C64.786 13.3851 64.4629 13.1455 64.0937 12.9981C63.7244 12.8322 63.346 12.7493 62.9583 12.7493C62.5706 12.7493 62.2013 12.823 61.8505 12.9704C61.4998 13.0994 61.1859 13.3298 60.909 13.6615C60.6321 13.9747 60.4105 14.3985 60.2444 14.9329C60.0782 15.4673 59.9951 16.1399 59.9951 16.9507C59.9951 17.6694 60.0782 18.2959 60.2444 18.8303C60.4105 19.3462 60.6321 19.7701 60.909 20.1017C61.2044 20.4334 61.5275 20.6822 61.8782 20.848C62.2475 21.0139 62.626 21.0968 63.0137 21.0968C63.4014 21.0968 63.7706 21.0323 64.1214 20.9033C64.4722 20.7559 64.786 20.5164 65.0629 20.1847C65.3399 19.853 65.5614 19.4292 65.7276 18.9132C65.8937 18.3788 65.9768 17.7246 65.9768 16.9507Z" fill="white"/>
<path d="M43.6621 6.09106H47.4561V20.5195H54.4901V23.5047H43.6621V6.09106Z" fill="white"/>
<path d="M28.9756 0.000244141C31.1846 0.000389293 32.9756 1.79119 32.9756 4.00024V28.0002C32.9754 30.2092 31.1845 32.0001 28.9756 32.0002H4.91504C4.09729 32.0002 3.33761 31.7534 2.7041 31.3323L14.3691 20.4817C15.8252 19.1274 18.0565 19.0463 19.6074 20.2913L27.5957 26.7034L21.0176 18.5393C19.8386 17.076 19.8395 14.991 21.0195 13.5286L27.6309 5.33423L19.4219 11.9338C17.9566 13.1117 15.8675 13.1127 14.4014 11.9358L6.22266 5.37036L12.6465 13.343C13.8939 14.8911 13.8122 17.1192 12.4551 18.5725L1.58398 30.2141C1.16173 29.5801 0.915093 28.8191 0.915039 28.0002V4.00024C0.915039 1.79111 2.7059 0.000244216 4.91504 0.000244141H28.9756Z" fill="#0AF89D"/>
</svg>
