<svg width="206" height="32" viewBox="0 0 206 32" fill="none" xmlns="http://www.w3.org/2000/svg">
<path d="M185.703 25.8894V12.9291H189.707V25.8894H185.703ZM193.843 25.8894V18.3159C193.843 17.6581 193.642 17.1514 193.241 16.7959C192.857 16.4225 192.377 16.2359 191.801 16.2359C191.4 16.2359 191.042 16.3248 190.728 16.5025C190.414 16.6625 190.161 16.8937 189.969 17.1959C189.794 17.4981 189.707 17.8715 189.707 18.3159L188.163 17.6226C188.163 16.5914 188.381 15.7114 188.817 14.9825C189.254 14.2358 189.847 13.6669 190.597 13.2758C191.347 12.8669 192.194 12.6625 193.136 12.6625C194.026 12.6625 194.82 12.8669 195.518 13.2758C196.233 13.6847 196.8 14.2536 197.219 14.9825C197.638 15.7114 197.847 16.5825 197.847 17.5959V25.8894H193.843ZM201.983 25.8894V18.3159C201.983 17.6581 201.782 17.1514 201.381 16.7959C200.997 16.4225 200.517 16.2359 199.941 16.2359C199.54 16.2359 199.182 16.3248 198.868 16.5025C198.554 16.6625 198.301 16.8937 198.109 17.1959C197.934 17.4981 197.847 17.8715 197.847 18.3159L195.544 17.9959C195.579 16.8937 195.832 15.9514 196.303 15.1692C196.791 14.3692 197.428 13.7558 198.214 13.3292C199.016 12.8847 199.915 12.6625 200.909 12.6625C201.887 12.6625 202.75 12.8758 203.501 13.3025C204.268 13.7114 204.87 14.3069 205.307 15.0892C205.76 15.8536 205.987 16.7781 205.987 17.8626V25.8894H201.983Z" fill="white"/>
<path d="M176.724 26.1827C175.555 26.1827 174.517 25.9426 173.609 25.4626C172.719 24.9649 172.021 24.2893 171.515 23.4359C171.009 22.5648 170.756 21.5692 170.756 20.4492V12.9291H174.761V20.3959C174.761 20.8403 174.831 21.2226 174.97 21.5426C175.127 21.8626 175.354 22.1115 175.651 22.2892C175.947 22.467 176.305 22.5559 176.724 22.5559C177.317 22.5559 177.788 22.3693 178.137 21.9959C178.486 21.6048 178.661 21.0714 178.661 20.3959V12.9291H182.665V20.4225C182.665 21.5603 182.412 22.5648 181.906 23.4359C181.4 24.2893 180.702 24.9649 179.812 25.4626C178.923 25.9426 177.893 26.1827 176.724 26.1827Z" fill="white"/>
<path d="M163.192 26.2085C162.442 26.2085 161.7 26.1107 160.967 25.9152C160.252 25.7196 159.58 25.4441 158.952 25.0885C158.341 24.7152 157.818 24.2885 157.381 23.8085L159.658 21.4618C160.077 21.924 160.575 22.2884 161.15 22.5551C161.726 22.804 162.354 22.9285 163.035 22.9285C163.506 22.9285 163.864 22.8573 164.108 22.7151C164.37 22.5729 164.501 22.3773 164.501 22.1284C164.501 21.8084 164.344 21.5684 164.029 21.4084C163.733 21.2306 163.349 21.0795 162.878 20.9551C162.407 20.8129 161.909 20.6617 161.386 20.5017C160.862 20.3417 160.365 20.1195 159.894 19.8351C159.423 19.5506 159.039 19.1595 158.742 18.6617C158.446 18.1461 158.297 17.4972 158.297 16.715C158.297 15.8794 158.507 15.1594 158.926 14.555C159.344 13.9327 159.938 13.4438 160.705 13.0883C161.473 12.7327 162.372 12.5549 163.401 12.5549C164.483 12.5549 165.478 12.7505 166.385 13.1416C167.31 13.5149 168.06 14.075 168.636 14.8216L166.359 17.1683C165.958 16.6883 165.504 16.3506 164.998 16.155C164.509 15.9594 164.029 15.8617 163.558 15.8617C163.105 15.8617 162.764 15.9328 162.538 16.075C162.311 16.1994 162.197 16.3861 162.197 16.635C162.197 16.9017 162.346 17.115 162.642 17.275C162.939 17.435 163.323 17.5772 163.794 17.7017C164.265 17.8261 164.762 17.9773 165.286 18.155C165.809 18.3328 166.307 18.5728 166.778 18.875C167.249 19.1773 167.633 19.5862 167.929 20.1017C168.226 20.5995 168.374 21.2573 168.374 22.0751C168.374 23.3373 167.903 24.3418 166.961 25.0885C166.036 25.8352 164.78 26.2085 163.192 26.2085Z" fill="white"/>
<path d="M149.798 26.1561C148.943 26.1561 148.158 25.9872 147.442 25.6494C146.727 25.3116 146.142 24.8494 145.689 24.2627C145.235 23.6582 144.973 22.9738 144.903 22.2093V16.7425C144.973 15.9781 145.235 15.2847 145.689 14.6625C146.142 14.0403 146.727 13.5514 147.442 13.1958C148.158 12.8403 148.943 12.6625 149.798 12.6625C151.002 12.6625 152.066 12.9558 152.991 13.5425C153.933 14.1292 154.666 14.9292 155.19 15.9425C155.73 16.9559 156.001 18.1115 156.001 19.4093C156.001 20.7071 155.73 21.8626 155.19 22.876C154.666 23.8893 153.933 24.6894 152.991 25.276C152.066 25.8627 151.002 26.1561 149.798 26.1561ZM142.469 31.3562V12.9291H146.474V16.2625L145.819 19.4093L146.421 22.556V31.3562H142.469ZM149.065 22.476C149.641 22.476 150.138 22.3427 150.557 22.076C150.993 21.8093 151.333 21.4449 151.578 20.9826C151.822 20.5204 151.944 19.9959 151.944 19.4093C151.944 18.8048 151.822 18.2715 151.578 17.8092C151.333 17.347 150.993 16.9914 150.557 16.7425C150.138 16.4759 149.65 16.3425 149.091 16.3425C148.533 16.3425 148.035 16.4759 147.599 16.7425C147.18 16.9914 146.849 17.347 146.605 17.8092C146.36 18.2715 146.238 18.8048 146.238 19.4093C146.238 19.9959 146.352 20.5204 146.578 20.9826C146.823 21.4449 147.163 21.8093 147.599 22.076C148.035 22.3427 148.524 22.476 149.065 22.476Z" fill="white"/>
<path d="M135.121 25.8897V12.9295H139.126V25.8897H135.121ZM137.137 11.1428C136.509 11.1428 135.985 10.9295 135.566 10.5028C135.165 10.0583 134.964 9.52499 134.964 8.90276C134.964 8.26275 135.165 7.72941 135.566 7.30273C135.985 6.87606 136.509 6.66272 137.137 6.66272C137.765 6.66272 138.28 6.87606 138.681 7.30273C139.082 7.72941 139.283 8.26275 139.283 8.90276C139.283 9.52499 139.082 10.0583 138.681 10.5028C138.28 10.9295 137.765 11.1428 137.137 11.1428Z" fill="white"/>
<path d="M125.642 26.1816C124.334 26.1816 123.147 25.8882 122.083 25.3015C121.036 24.6971 120.207 23.8793 119.596 22.8482C118.986 21.817 118.68 20.6615 118.68 19.3814C118.68 18.1014 118.986 16.9547 119.596 15.9414C120.207 14.928 121.036 14.128 122.083 13.5413C123.13 12.9369 124.316 12.6346 125.642 12.6346C126.968 12.6346 128.155 12.928 129.202 13.5147C130.249 14.1013 131.078 14.9102 131.688 15.9414C132.299 16.9547 132.605 18.1014 132.605 19.3814C132.605 20.6615 132.299 21.817 131.688 22.8482C131.078 23.8793 130.249 24.6971 129.202 25.3015C128.155 25.8882 126.968 26.1816 125.642 26.1816ZM125.642 22.4748C126.218 22.4748 126.724 22.3504 127.16 22.1015C127.597 21.8348 127.928 21.4704 128.155 21.0081C128.399 20.5281 128.521 19.9859 128.521 19.3814C128.521 18.777 128.399 18.2525 128.155 17.8081C127.911 17.3458 127.57 16.9903 127.134 16.7414C126.715 16.4747 126.218 16.3414 125.642 16.3414C125.084 16.3414 124.587 16.4747 124.15 16.7414C123.714 16.9903 123.374 17.3458 123.13 17.8081C122.885 18.2703 122.763 18.8036 122.763 19.4081C122.763 19.9948 122.885 20.5281 123.13 21.0081C123.374 21.4704 123.714 21.8348 124.15 22.1015C124.587 22.3504 125.084 22.4748 125.642 22.4748Z" fill="white"/>
<path d="M109.101 31.7028C107.705 31.7028 106.475 31.4539 105.41 30.9561C104.363 30.4761 103.535 29.7917 102.924 28.9028L105.384 26.3961C105.838 26.9472 106.344 27.365 106.902 27.6494C107.478 27.9339 108.167 28.0761 108.97 28.0761C109.965 28.0761 110.741 27.8272 111.299 27.3294C111.875 26.8316 112.163 26.1294 112.163 25.2227V21.916L112.844 19.0893L112.242 16.2625V12.9291H116.168V25.116C116.168 26.4494 115.862 27.605 115.252 28.5828C114.641 29.5606 113.803 30.325 112.739 30.8761C111.675 31.4273 110.462 31.7028 109.101 31.7028ZM108.918 25.4894C107.749 25.4894 106.71 25.2049 105.803 24.636C104.896 24.0671 104.18 23.2938 103.657 22.316C103.133 21.3382 102.872 20.2537 102.872 19.0626C102.872 17.8537 103.133 16.7692 103.657 15.8092C104.18 14.8314 104.896 14.0669 105.803 13.5158C106.71 12.9469 107.749 12.6625 108.918 12.6625C109.79 12.6625 110.567 12.8314 111.247 13.1692C111.945 13.4892 112.503 13.9514 112.922 14.5558C113.358 15.1425 113.603 15.827 113.655 16.6092V21.5426C113.603 22.3071 113.358 22.9916 112.922 23.596C112.503 24.1827 111.945 24.6449 111.247 24.9827C110.549 25.3205 109.773 25.4894 108.918 25.4894ZM109.677 21.8626C110.235 21.8626 110.715 21.7382 111.116 21.4893C111.535 21.2404 111.849 20.9115 112.058 20.5026C112.285 20.0759 112.399 19.5959 112.399 19.0626C112.399 18.5293 112.285 18.0492 112.058 17.6226C111.849 17.1959 111.535 16.8581 111.116 16.6092C110.715 16.3603 110.235 16.2359 109.677 16.2359C109.136 16.2359 108.656 16.3603 108.237 16.6092C107.818 16.8581 107.496 17.1959 107.269 17.6226C107.042 18.0492 106.928 18.5293 106.928 19.0626C106.928 19.5604 107.042 20.0315 107.269 20.476C107.496 20.9026 107.81 21.2404 108.211 21.4893C108.63 21.7382 109.118 21.8626 109.677 21.8626Z" fill="white"/>
<path d="M94.2293 26.1816C92.9206 26.1816 91.734 25.8882 90.6697 25.3015C89.6227 24.6971 88.7939 23.8793 88.1832 22.8482C87.5724 21.817 87.2671 20.6615 87.2671 19.3814C87.2671 18.1014 87.5724 16.9547 88.1832 15.9414C88.7939 14.928 89.6227 14.128 90.6697 13.5413C91.7166 12.9369 92.9031 12.6346 94.2293 12.6346C95.5554 12.6346 96.7419 12.928 97.7889 13.5147C98.8358 14.1013 99.6646 14.9102 100.275 15.9414C100.886 16.9547 101.191 18.1014 101.191 19.3814C101.191 20.6615 100.886 21.817 100.275 22.8482C99.6646 23.8793 98.8358 24.6971 97.7889 25.3015C96.7419 25.8882 95.5554 26.1816 94.2293 26.1816ZM94.2293 22.4748C94.8051 22.4748 95.3111 22.3504 95.7473 22.1015C96.1835 21.8348 96.5151 21.4704 96.7419 21.0081C96.9862 20.5281 97.1083 19.9859 97.1083 19.3814C97.1083 18.777 96.9862 18.2525 96.7419 17.8081C96.4976 17.3458 96.1574 16.9903 95.7211 16.7414C95.3024 16.4747 94.8051 16.3414 94.2293 16.3414C93.6709 16.3414 93.1736 16.4747 92.7374 16.7414C92.3011 16.9903 91.9609 17.3458 91.7166 17.8081C91.4723 18.2703 91.3502 18.8036 91.3502 19.4081C91.3502 19.9948 91.4723 20.5281 91.7166 21.0081C91.9609 21.4704 92.3011 21.8348 92.7374 22.1015C93.1736 22.3504 93.6709 22.4748 94.2293 22.4748Z" fill="white"/>
<path d="M73.481 25.8898V7.06274H77.5902V25.8898H73.481ZM76.648 25.8898V22.2097H85.7825V25.8898H76.648Z" fill="white"/>
<path d="M59.4199 12.1466L43.1025 29.5734C40.0584 32.8241 34.96 32.807 31.9374 29.5353L27.6161 24.67C26.2793 23.1648 25.5411 21.2213 25.541 19.2081C25.541 17.7352 23.7535 17.004 22.7216 18.0548L19.9648 20.8644L19.957 20.8575L12.2128 28.9435C10.6624 30.5619 8.10888 30.566 6.55169 28.9523L3.88666 26.1906L1.27142 23.5724C-0.275608 22.0237 -0.315139 19.4959 1.18353 17.9005L9.42181 9.13098C9.45775 9.019 9.54775 8.88822 9.69525 8.73254L15.1904 2.96301C18.9296 -0.962269 25.1552 -0.819606 28.7177 3.27258L30.5292 5.35364L31.4999 6.57727L36.8378 12.8937C37.8927 14.1419 39.9306 13.3961 39.9306 11.7618C39.9306 9.56558 40.7558 7.44897 42.2411 5.83118L47.5947 0.00012207H59.4199V12.1466Z" fill="#16BDEB"/>
</svg>
