<svg width="257" height="32" viewBox="0 0 257 32" fill="none" xmlns="http://www.w3.org/2000/svg">
<path d="M220.292 8.65226L227.62 8.48646C227.888 8.48646 228.089 8.56684 228.223 8.72762C228.357 8.87835 228.424 9.06928 228.424 9.3004C228.424 9.52147 228.367 9.88322 228.254 10.3857C231.005 8.9085 233.401 8.16992 235.442 8.16992C236.328 8.16992 237.148 8.38597 237.9 8.81806C238.663 9.25015 239.157 9.88824 239.384 10.7323C242.744 9.02406 245.527 8.16992 247.732 8.16992C248.701 8.16992 249.556 8.43621 250.298 8.96879C251.092 9.55161 251.489 10.3756 251.489 11.4408C251.489 12.4959 251.298 13.6113 250.917 14.787C250.546 15.9526 250.17 17.0429 249.788 18.0578C249.417 19.0727 249.232 19.7912 249.232 20.2133C249.232 20.6253 249.34 20.9368 249.556 21.1478C249.773 21.3588 250.061 21.4643 250.422 21.4643C251.752 21.4643 253.401 21.0121 255.369 20.1077C255.74 19.947 256.023 19.8666 256.219 19.8666C256.683 19.8666 256.915 20.0475 256.915 20.4092C256.915 20.7308 256.714 21.0372 256.312 21.3287C255.92 21.61 255.348 21.9215 254.596 22.2632C253.844 22.6048 252.911 22.9716 251.798 23.3635C250.695 23.7554 249.397 24.087 247.902 24.3583C246.408 24.6296 245.073 24.7653 243.898 24.7653C242.734 24.7653 241.863 24.5744 241.286 24.1925C240.709 23.8107 240.42 23.3183 240.42 22.7154C240.42 22.1125 240.616 21.2081 241.007 20.0022C241.409 18.7964 241.811 17.6056 242.213 16.4299C242.615 15.2442 242.816 14.385 242.816 13.8524C242.816 13.3098 242.682 12.9229 242.414 12.6918C242.146 12.4507 241.744 12.3301 241.208 12.3301C240.683 12.3301 240.1 12.4105 239.461 12.5712C239.297 14.2896 238.611 16.9072 237.405 20.4243C236.9 21.9014 236.617 22.8259 236.555 23.1977C236.493 23.5695 236.452 23.7856 236.431 23.8459C236.411 23.8961 236.375 23.9664 236.323 24.0569C236.231 24.2177 236.035 24.298 235.736 24.298C234.252 24.298 232.783 24.3232 231.33 24.3734C229.887 24.4337 228.954 24.4638 228.532 24.4638C228.12 24.4638 227.913 24.2277 227.913 23.7554C227.913 23.2831 228.073 22.5797 228.393 21.6452C228.712 20.7107 229.068 19.7812 229.459 18.8567C230.48 16.4048 230.99 14.576 230.99 13.3701C230.99 12.4758 230.392 12.0286 229.197 12.0286C228.692 12.0286 228.212 12.109 227.759 12.2698C227.357 13.6063 226.661 15.7215 225.672 18.6155C224.693 21.5095 224.141 23.1374 224.018 23.4992C223.853 24.0318 223.559 24.298 223.137 24.298L215.19 24.4638C215.077 24.4638 214.948 24.3935 214.804 24.2528C214.67 24.1222 214.603 23.9664 214.603 23.7856C214.603 23.5946 214.819 22.9364 215.252 21.811C215.695 20.6755 216.18 19.4596 216.705 18.1633C217.231 16.857 217.71 15.4251 218.143 13.8675C218.586 12.2999 218.808 11.0036 218.808 9.97868L218.792 9.40591C218.792 8.90347 219.292 8.65226 220.292 8.65226Z" fill="white"/>
<path d="M190.936 8.65213L197.924 8.48633C198.191 8.48633 198.392 8.56672 198.526 8.7275C198.66 8.87823 198.727 9.10935 198.727 9.42085C198.727 9.72231 198.439 10.5162 197.862 11.8024C197.295 13.0786 196.723 14.4402 196.146 15.8872C195.569 17.3241 195.28 18.3742 195.28 19.0374C195.28 20.2835 195.96 20.9065 197.321 20.9065C197.97 20.9065 198.681 20.8261 199.454 20.6653C199.701 19.8112 200.114 18.6807 200.691 17.2739C202.154 13.7468 203.035 11.0638 203.334 9.22491C203.386 8.8531 203.659 8.6672 204.154 8.6672C205.648 8.6672 207.22 8.63706 208.869 8.57677C210.518 8.51647 211.466 8.48633 211.713 8.48633C211.971 8.48633 212.167 8.55667 212.301 8.69735C212.445 8.82798 212.517 8.95359 212.517 9.07418C212.517 9.55651 212.198 10.5765 211.559 12.134C210.92 13.6915 210.281 15.3044 209.642 16.9724C209.003 18.6305 208.683 19.8413 208.683 20.605C208.683 21.3687 209.028 21.7506 209.719 21.7506C210.42 21.7506 211.383 21.5697 212.61 21.2079C213.847 20.8361 214.707 20.5196 215.191 20.2583C215.686 19.9971 216.006 19.8665 216.15 19.8665C216.542 19.8665 216.737 20.0473 216.737 20.4091C216.737 20.7708 216.459 21.1175 215.903 21.4491C215.356 21.7707 214.692 22.1023 213.908 22.4439C213.135 22.7755 212.203 23.1272 211.11 23.499C208.596 24.3431 206.034 24.7652 203.427 24.7652C200.82 24.7652 199.351 24.0819 199.021 22.7153C198.021 23.1172 197.202 23.4337 196.563 23.6648C195.924 23.8859 195.038 24.1221 193.904 24.3733C192.77 24.6345 191.73 24.7652 190.781 24.7652C187.751 24.7652 186.236 23.5593 186.236 21.1477C186.236 20.3136 186.401 19.3037 186.731 18.118C187.061 16.9222 187.427 15.842 187.829 14.8773C188.89 12.3149 189.421 10.7272 189.421 10.1142C189.421 9.4912 189.514 9.09427 189.699 8.92345C189.885 8.74257 190.297 8.65213 190.936 8.65213Z" fill="white"/>
<path d="M171.55 24.7502C171.292 24.7603 170.911 24.7653 170.406 24.7653C168.035 24.7653 165.799 24.5493 163.697 24.1172C161.604 23.6851 160.368 23.1826 159.986 22.6099C159.863 22.429 159.801 22.2029 159.801 21.9316C159.801 21.6603 160.131 21.2282 160.79 20.6353C161.45 20.0324 161.903 19.7309 162.151 19.7309C162.398 19.7309 162.65 19.8214 162.908 20.0022C163.176 20.1731 163.47 20.3841 163.789 20.6353C164.109 20.8865 164.464 21.1377 164.856 21.389C165.794 21.9919 166.922 22.2933 168.242 22.2933C168.767 22.2933 169.19 22.1627 169.509 21.9014C169.839 21.6402 170.004 21.3136 170.004 20.9217C170.004 20.5197 169.865 20.1731 169.586 19.8816C169.319 19.5902 168.963 19.339 168.52 19.128C168.087 18.9069 167.608 18.6909 167.082 18.4799C166.556 18.2588 166.026 18.0226 165.49 17.7714C164.964 17.5102 164.48 17.2288 164.037 16.9273C163.058 16.2541 162.568 15.42 162.568 14.4252C162.568 13.4204 162.877 12.5511 163.496 11.8176C164.124 11.084 164.913 10.4962 165.861 10.054C166.809 9.61191 167.881 9.24011 169.076 8.93865C171.179 8.42616 173.163 8.16992 175.028 8.16992C176.904 8.16992 178.646 8.26538 180.253 8.45631C181.871 8.63719 182.984 8.9085 183.593 9.27025C183.757 9.36069 183.84 9.60186 183.84 9.99376C183.84 10.3756 183.701 10.9283 183.423 11.6518C183.144 12.3652 182.789 13.0285 182.356 13.6414C181.933 14.2443 181.552 14.5458 181.212 14.5458C181.078 14.5458 180.964 14.4905 180.872 14.38C179.893 13.2345 178.939 12.3552 178.012 11.7422C177.095 11.1192 176.095 10.8077 175.013 10.8077C174.188 10.8077 173.596 10.9735 173.235 11.3051C172.884 11.6267 172.709 11.9633 172.709 12.315C172.709 12.6667 172.905 13.0033 173.297 13.3249C173.699 13.6464 174.193 13.9379 174.781 14.1991C175.379 14.4604 176.023 14.7669 176.713 15.1186C177.414 15.4602 178.058 15.8119 178.646 16.1737C179.243 16.5254 179.738 16.9726 180.13 17.5152C180.532 18.0478 180.733 18.721 180.733 19.535C180.733 20.3489 180.429 21.1428 179.82 21.9165C182.376 21.4141 184.376 20.7961 185.819 20.0625C186.066 19.9319 186.277 19.8666 186.453 19.8666C186.844 19.8666 187.04 20.0575 187.04 20.4394C187.04 20.7609 186.839 21.0573 186.437 21.3287C186.035 21.5899 185.37 21.9115 184.443 22.2933C183.515 22.6651 182.413 23.042 181.135 23.4238C178.156 24.3081 174.961 24.7502 171.55 24.7502Z" fill="white"/>
<path d="M136.257 8.65226L143.276 8.48646C143.544 8.48646 143.745 8.56684 143.879 8.72762C144.013 8.87835 144.08 9.05421 144.08 9.25518C144.08 9.4461 144.044 9.78273 143.972 10.2651C143.899 10.7374 143.863 11.084 143.863 11.3051C145.76 9.21498 148.29 8.16992 151.454 8.16992C153.381 8.16992 154.896 8.65226 155.999 9.61693C157.112 10.5716 157.668 11.9281 157.668 13.6866C157.668 17.1032 156.293 19.8967 153.541 22.0672C156.736 21.8462 159.189 21.2684 160.899 20.3338C161.466 20.0223 161.884 19.8666 162.152 19.8666C162.502 19.8666 162.677 20.0525 162.677 20.4243C162.677 20.6855 162.487 20.9518 162.105 21.2231C160.353 22.4189 158.096 23.3032 155.334 23.876C152.582 24.4488 149.619 24.7352 146.445 24.7352C146.053 24.7553 145.76 24.7653 145.564 24.7653C144.471 24.7653 143.379 24.6045 142.286 24.283C141.194 23.9614 140.287 23.5092 139.566 22.9264C138.855 25.0467 138.499 27.4935 138.499 30.267L138.514 30.7041C138.514 31.2065 138.015 31.4577 137.015 31.4577L129.826 31.6386C129.579 31.6386 129.383 31.5632 129.239 31.4125C129.095 31.2718 129.022 31.111 129.022 30.9302C129.022 29.2118 129.986 25.8807 131.913 20.9368C133.841 15.9828 134.804 12.6667 134.804 10.9886L134.742 9.73751C134.742 9.36571 134.835 9.0944 135.021 8.92357C135.216 8.7427 135.629 8.65226 136.257 8.65226ZM146.893 11.9985C144.956 11.9985 143.338 13.4455 142.039 16.3395C141.441 17.6659 141.143 18.7411 141.143 19.5651C141.143 20.3891 141.282 20.9569 141.56 21.2684C141.848 21.5799 142.405 21.7356 143.23 21.7356C144.064 21.7356 144.961 21.3638 145.919 20.6202C146.888 19.8666 147.666 18.922 148.254 17.7865C148.841 16.651 149.135 15.6311 149.135 14.7267C149.135 13.8123 148.929 13.1289 148.517 12.6768C148.104 12.2246 147.563 11.9985 146.893 11.9985Z" fill="white"/>
<path d="M130.09 2.90909C130.09 3.9843 129.477 4.92385 128.25 5.72774C127.034 6.52159 125.746 6.91851 124.385 6.91851C123.035 6.91851 121.984 6.65222 121.232 6.11964C120.479 5.57701 120.103 4.91883 120.103 4.14508C120.103 3.37133 120.392 2.66792 120.969 2.03486C121.546 1.40179 122.293 0.904381 123.211 0.542628C124.138 0.180876 125.143 0 126.225 0C127.307 0 128.219 0.281363 128.961 0.844089C129.714 1.39677 130.09 2.0851 130.09 2.90909ZM125.746 21.6147C126.447 21.6147 127.395 21.4539 128.59 21.1324C129.796 20.8008 130.672 20.5093 131.218 20.2581C131.765 19.9969 132.146 19.8662 132.362 19.8662C132.795 19.8662 133.012 20.0772 133.012 20.4993C133.012 20.6902 132.852 20.9063 132.532 21.1474C131.481 21.9111 129.59 22.705 126.859 23.529C124.128 24.353 121.69 24.765 119.547 24.765C118.217 24.765 117.104 24.559 116.208 24.147C115.311 23.735 114.863 23.1069 114.863 22.2628C114.863 21.7504 115.311 20.4943 116.208 18.4946C117.898 14.7062 118.743 11.8524 118.743 9.93311L118.727 9.36034C118.727 8.85791 119.227 8.60669 120.227 8.60669L127.864 8.44089C128.132 8.44089 128.333 8.52127 128.467 8.68205C128.601 8.83278 128.668 9.00361 128.668 9.19454C128.668 9.88789 128.343 11.0334 127.694 12.6312C127.044 14.2189 126.395 15.7814 125.746 17.3189C125.097 18.8563 124.772 19.9567 124.772 20.6199C124.772 21.2831 125.097 21.6147 125.746 21.6147Z" fill="white"/>
<path d="M90.9786 23.1525C89.041 22.017 88.0723 20.2936 88.0723 17.9825C88.0723 16.7766 88.3248 15.6461 88.8298 14.591C89.3451 13.5259 90.0459 12.6064 90.9322 11.8327C91.8289 11.0589 92.8698 10.3957 94.055 9.84303C96.4254 8.72762 99.1411 8.16992 102.202 8.16992C108.221 8.16992 111.472 10.0289 111.957 13.7469C112.678 13.9781 113.42 14.0936 114.183 14.0936C114.956 14.0936 115.6 14.0383 116.115 13.9278C116.631 13.8173 117.115 13.6515 117.569 13.4304C118.032 13.2093 118.362 13.0988 118.558 13.0988C118.95 13.0988 119.145 13.2847 119.145 13.6565C119.145 14.0283 118.841 14.4152 118.233 14.8171C117.089 15.5808 115.574 15.9627 113.688 15.9627C112.977 15.9627 112.4 15.9275 111.957 15.8572C111.627 18.3894 110.287 20.4946 107.937 22.1727C106.814 22.9766 105.433 23.6097 103.794 24.0719C102.166 24.5342 100.476 24.7653 98.7237 24.7653C96.9819 24.7653 95.4875 24.6296 94.2405 24.3583C92.9935 24.0971 91.9062 23.6951 90.9786 23.1525ZM96.5903 19.3089C96.5903 21.1679 97.286 22.0974 98.6773 22.0974C99.5636 22.0974 100.388 21.6251 101.151 20.6805C101.924 19.7359 102.522 18.5653 102.944 17.1685C103.377 15.7717 103.593 14.3499 103.593 12.9028C103.593 11.4458 103.073 10.7173 102.032 10.7173C101.125 10.7173 100.244 11.1343 99.3884 11.9683C98.5433 12.8024 97.8631 13.8876 97.3478 15.2241C96.8428 16.5505 96.5903 17.9121 96.5903 19.3089Z" fill="white"/>
<path d="M57.8657 29.2872C57.8657 28.6742 58.3604 28.0814 59.3498 27.5086C60.3495 26.9358 61.6378 26.4384 63.2146 26.0164C66.0694 25.2527 69.0428 24.6648 72.1346 24.2528C72.4953 23.2681 72.8303 22.3285 73.1395 21.4342C72.0367 22.228 70.8 22.851 69.4292 23.3032C68.0585 23.7554 66.8166 23.9815 65.7036 23.9815C64.5905 23.9815 63.6526 23.8911 62.89 23.7102C62.1273 23.5193 61.4213 23.2228 60.7721 22.8209C59.3807 21.9567 58.6851 20.5348 58.6851 18.5552C58.6851 16.5656 59.2313 14.7769 60.3237 13.1892C61.4162 11.6015 62.8951 10.3706 64.7605 9.49635C66.6363 8.61206 68.7593 8.16992 71.1298 8.16992C73.5002 8.16992 75.3347 8.67236 76.6332 9.67722C77.5711 9.39586 78.6584 9.14967 79.8951 8.93865C81.1422 8.71757 82.1161 8.60704 82.8169 8.60704C83.5281 8.60704 84.1258 8.77284 84.6102 9.10445C85.1049 9.43605 85.3523 9.8179 85.3523 10.25C85.3523 10.672 85.1977 11.3152 84.8885 12.1793C84.5896 13.0435 84.0691 14.4855 83.3271 16.5053C82.5851 18.5251 81.8791 20.5549 81.2092 22.5948C83.291 22.0421 85.5068 21.2231 87.8567 20.1379C88.2483 19.957 88.5523 19.8666 88.7688 19.8666C89.2222 19.8666 89.449 20.0424 89.449 20.3941C89.449 20.6654 89.2634 20.9317 88.8924 21.193C87.1919 22.439 84.4144 23.5846 80.5599 24.6296L80.1425 25.9711C79.8539 26.9157 79.3283 27.7498 78.5656 28.4733C77.803 29.2068 76.9321 29.7896 75.953 30.2217C74.974 30.6538 73.8506 31.0055 72.5829 31.2768C70.3774 31.7592 67.8885 32.0003 65.1161 32.0003C60.2825 32.0003 57.8657 31.096 57.8657 29.2872ZM72.5365 19.5651C73.3404 18.932 74.0412 17.9473 74.639 16.6108C75.2471 15.2743 75.5511 14.1941 75.5511 13.3701C75.5511 12.5461 75.4068 11.9784 75.1182 11.6669C74.84 11.3554 74.2834 11.1996 73.4486 11.1996C72.6241 11.1996 71.7121 11.5513 70.7124 12.2547C69.723 12.9481 68.9139 13.8374 68.2853 14.9226C67.6669 16.0079 67.3577 17.0027 67.3577 17.9071C67.3577 18.8115 67.5587 19.4697 67.9606 19.8816C68.3729 20.2836 68.8263 20.4846 69.321 20.4846C69.826 20.4846 70.2022 20.4695 70.4495 20.4394C70.7072 20.4092 71.037 20.3238 71.4389 20.1831C71.8409 20.0324 72.2067 19.8264 72.5365 19.5651ZM70.7742 27.9759L71.5008 25.9711C66.8939 26.6846 64.5905 27.7045 64.5905 29.031C64.5905 29.4229 64.7812 29.7344 65.1625 29.9655C65.5541 30.2067 66.0437 30.3272 66.6311 30.3272C68.8263 30.3272 70.2074 29.5434 70.7742 27.9759Z" fill="white"/>
<path d="M34.2752 23.1525C32.3377 22.017 31.3689 20.2936 31.3689 17.9825C31.3689 16.7766 31.6214 15.6461 32.1264 14.591C32.6417 13.5259 33.3425 12.6064 34.2289 11.8327C35.1255 11.0589 36.1664 10.3957 37.3516 9.84303C39.722 8.72762 42.4377 8.16992 45.4986 8.16992C51.5174 8.16992 54.769 10.0289 55.2534 13.7469C55.9749 13.9781 56.7169 14.0936 57.4796 14.0936C58.2525 14.0936 58.8967 14.0383 59.412 13.9278C59.9273 13.8173 60.4117 13.6515 60.8651 13.4304C61.3289 13.2093 61.6587 13.0988 61.8545 13.0988C62.2462 13.0988 62.442 13.2847 62.442 13.6565C62.442 14.0283 62.1379 14.4152 61.5299 14.8171C60.3859 15.5808 58.8709 15.9627 56.9849 15.9627C56.2737 15.9627 55.6966 15.9275 55.2534 15.8572C54.9236 18.3894 53.5838 20.4946 51.234 22.1727C50.1107 22.9766 48.7296 23.6097 47.0909 24.0719C45.4626 24.5342 43.7724 24.7653 42.0203 24.7653C40.2786 24.7653 38.7842 24.6296 37.5371 24.3583C36.2901 24.0971 35.2028 23.6951 34.2752 23.1525ZM39.8869 19.3089C39.8869 21.1679 40.5826 22.0974 41.9739 22.0974C42.8603 22.0974 43.6848 21.6251 44.4474 20.6805C45.2204 19.7359 45.8181 18.5653 46.2407 17.1685C46.6735 15.7717 46.89 14.3499 46.89 12.9028C46.89 11.4458 46.3695 10.7173 45.3286 10.7173C44.4217 10.7173 43.5405 11.1343 42.6851 11.9683C41.84 12.8024 41.1598 13.8876 40.6444 15.2241C40.1394 16.5505 39.8869 17.9121 39.8869 19.3089Z" fill="white"/>
<path d="M8.61374 24.2832L2.4455 24.4339C1.42519 24.4339 0.915039 24.0922 0.915039 23.4089C0.915039 23.0974 1.04902 22.8261 1.31698 22.595C1.59525 22.3639 1.95596 22.1026 2.39913 21.8112C2.84229 21.5097 3.24423 21.1178 3.60495 20.6355C3.96566 20.1431 4.36245 19.3191 4.79531 18.1635C5.23847 16.9979 5.59919 15.8624 5.87746 14.757C6.76379 11.25 7.39761 8.96899 7.77894 7.91388C8.17058 6.84872 8.4643 6.07498 8.66012 5.59264C8.86624 5.10025 9.08783 4.64806 9.32487 4.23607C9.57222 3.82407 9.80926 3.46232 10.036 3.15081C10.2627 2.8393 10.5307 2.56296 10.8399 2.3218C11.1491 2.07058 11.4428 1.86458 11.7211 1.7038C12.0096 1.53298 12.36 1.38727 12.7723 1.26669C13.1845 1.13605 13.5813 1.03557 13.9626 0.965226C14.344 0.894885 14.8181 0.839617 15.3849 0.799422C16.2403 0.73913 17.3791 0.708984 18.8014 0.708984C20.2236 0.708984 21.28 0.774301 21.9705 0.904934C22.661 1.03557 23.0063 1.3119 23.0063 1.73395C23.0063 2.0756 22.6095 2.48258 21.8159 2.95486C20.9296 3.48744 20.1463 4.35163 19.4661 5.54742C18.7344 6.85375 18.1624 8.07969 17.7502 9.22523C17.3379 10.3607 17.0133 11.2752 16.7762 11.9685C16.5392 12.6619 16.2506 13.516 15.9105 14.5309C15.5704 15.5459 15.2818 16.3899 15.0448 17.0632C14.076 19.7663 12.7517 21.4746 11.0718 22.188C13.6689 22.0574 15.8177 21.6102 17.5183 20.8465C18.4458 20.4345 19.2394 20.0477 19.899 19.6859C20.5689 19.3242 21.3161 18.7865 22.1406 18.0731C23.2227 17.1285 24.1864 16.2292 25.0315 15.375C25.8766 14.5108 26.3352 14.0436 26.4073 13.9732C26.6753 13.7019 26.9999 13.5663 27.3813 13.5663C27.7626 13.5663 28.0718 13.6567 28.3088 13.8376C28.5459 14.0185 28.6644 14.2546 28.6644 14.546C28.6644 15.7016 28.2831 17.4752 27.5204 19.8668C27.2524 20.6908 26.9845 21.364 26.7165 21.8866C26.4486 22.4091 26.1033 22.8764 25.6807 23.2884C24.8769 24.0721 23.5834 24.464 21.8005 24.464L8.61374 24.2832Z" fill="white"/>
</svg>
